<svg xmlns="http://www.w3.org/2000/svg" width="446" height="423" viewBox="0 0 446 423">
  <g id="Group_8" data-name="Group 8" transform="translate(-1326 -380)">
    <rect id="Rectangle_26" data-name="Rectangle 26" width="302" height="423" rx="32" transform="translate(1326 380)" fill="#f5f5f5"/>
    <rect id="Rectangle_14" data-name="Rectangle 14" width="266" height="100" rx="32" transform="translate(1344 486)" fill="#fff"/>
    <rect id="Rectangle_16" data-name="Rectangle 16" width="201" height="9" rx="4.5" transform="translate(1376 525)" fill="#bebebe"/>
    <text id="active_state" data-name="active state" transform="translate(1369 472)" fill="#646464" font-size="17" font-family="Lato-Bold, Lato" font-weight="700"><tspan x="0" y="0">active state</tspan></text>
    <text id="placeholder" transform="translate(1533 637)" fill="#464646" font-size="17" font-family="Lato-Bold, Lato" font-weight="700"><tspan x="0" y="0">placeholder</tspan></text>
    <rect id="Rectangle_18" data-name="Rectangle 18" width="201" height="9" rx="4.5" transform="translate(1376 540)" fill="#bebebe"/>
    <rect id="Rectangle_19" data-name="Rectangle 19" width="101" height="9" rx="4.5" transform="translate(1376 505)" fill="#bebebe"/>
    <rect id="Rectangle_20" data-name="Rectangle 20" width="201" height="9" rx="4.5" transform="translate(1376 554)" fill="#bebebe"/>
    <rect id="Rectangle_21" data-name="Rectangle 21" width="266" height="100" rx="32" transform="translate(1506 649)" fill="#4e4e4e"/>
    <rect id="Rectangle_22" data-name="Rectangle 22" width="201" height="9" rx="4.5" transform="translate(1538 688)" fill="#e2e2e2"/>
    <rect id="Rectangle_23" data-name="Rectangle 23" width="201" height="9" rx="4.5" transform="translate(1538 703)" fill="#e2e2e2"/>
    <rect id="Rectangle_24" data-name="Rectangle 24" width="101" height="9" rx="4.5" transform="translate(1538 668)" fill="#e2e2e2"/>
    <rect id="Rectangle_25" data-name="Rectangle 25" width="201" height="9" rx="4.5" transform="translate(1538 717)" fill="#e2e2e2"/>
  </g>
</svg>
