<svg xmlns="http://www.w3.org/2000/svg" width="705.758" height="158" viewBox="0 0 705.758 158">
  <g id="Group_1" data-name="Group 1" transform="translate(-640.242 -461)">
    <g id="Subtraction_1" data-name="Subtraction 1" transform="translate(619.137 530.111) rotate(-20)">
      <path d="M 103.4545974731445 113.6391067504883 C 100.9165420532227 113.6392517089844 98.41675567626953 113.1737365722656 96.02468109130859 112.2555236816406 C 90.85202789306641 110.2697677612305 86.76213836669922 106.3883666992188 84.50843811035156 101.3263244628906 C 82.25478363037109 96.26425170898438 82.10723876953125 90.62773895263672 84.09299468994141 85.45510864257813 L 92.56266784667969 63.3906135559082 L 141.7062225341797 51.13779830932617 L 122.8260269165039 100.3229217529297 C 121.2926254272461 104.3175506591797 118.6142272949219 107.6896057128906 115.0803833007813 110.0745544433594 C 111.6253280639648 112.4063110351563 107.6052017211914 113.6389083862305 103.4545974731445 113.6391067504883 Z M 96.93752288818359 51.99361038208008 L 109.2137985229492 20.01249504089355 C 110.7472152709961 16.01778030395508 113.4255142211914 12.64566612243652 116.9591522216797 10.26070976257324 C 120.4141387939453 7.928837776184082 124.43408203125 6.696280956268311 128.5844268798828 6.696280956268311 C 131.1227569580078 6.696280956268311 133.6224975585938 7.161795139312744 136.0142364501953 8.07989501953125 C 141.1873168945313 10.06566619873047 145.2774810791016 13.94705200195313 147.5312652587891 19.00908088684082 C 149.7850189208984 24.07112312316895 149.9326019287109 29.70763778686523 147.9468231201172 34.88031005859375 L 146.0811157226563 39.74069213867188 L 96.93752288818359 51.99361038208008 Z" stroke="none"/>
      <path d="M 103.4545822143555 113.1391067504883 C 107.505126953125 113.1389236450195 111.4285430908203 111.9358978271484 114.800666809082 109.6601104736328 C 118.2490692138672 107.3328247070313 120.8627853393555 104.042121887207 122.3592300415039 100.1437377929688 L 140.8952178955078 51.85531997680664 L 92.93618774414063 63.81279754638672 L 84.55978393554688 85.63430786132813 C 82.62188720703125 90.6822509765625 82.76588439941406 96.18289184570313 84.96522521972656 101.1229553222656 C 87.16459655761719 106.0629959106445 91.15589904785156 109.8508377075195 96.20387268066406 111.7887268066406 C 98.53851318359375 112.6849060058594 100.9780120849609 113.1392517089844 103.4545669555664 113.1391067504883 L 103.4545822143555 113.1391067504883 M 97.74851989746094 51.27608871459961 L 145.7075958251953 39.31850433349609 L 147.4800415039063 34.70111083984375 C 149.4179382324219 29.65313720703125 149.2739105224609 24.15248107910156 147.0744934082031 19.21245193481445 C 144.8750305175781 14.27243804931641 140.8834533691406 10.48459529876709 135.8350524902344 8.546694755554199 C 133.500732421875 7.650623798370361 131.0612487792969 7.196280956268311 128.5844268798828 7.196280956268311 C 124.5341415405273 7.196280956268311 120.6109161376953 8.399251937866211 117.2388687133789 10.67513847351074 C 113.7906723022461 13.00243759155273 111.1770553588867 16.2931957244873 109.6805953979492 20.19168090820313 L 97.74851989746094 51.27608871459961 M 103.4546279907227 114.1391067504883 C 100.8550567626953 114.1392517089844 98.29496765136719 113.6625671386719 95.84549713134766 112.7223129272461 C 90.54812622070313 110.6886825561523 86.35967254638672 106.7137069702148 84.05166625976563 101.5296783447266 C 81.74368286132813 96.34559631347656 81.59258270263672 90.57323455810547 83.62621307373047 85.27590942382813 L 92.18915557861328 62.96843719482422 L 142.5172119140625 50.42029571533203 L 123.2928161621094 100.5021057128906 C 121.7224731445313 104.5929794311523 118.9793853759766 108.0463790893555 115.3600845336914 110.4889984130859 C 111.8220977783203 112.8767242431641 107.7052536010742 114.1389083862305 103.4546279907227 114.1391067504883 Z M 96.12652587890625 52.71112442016602 L 96.12722778320313 52.70932388305664 L 108.7470092773438 19.83330917358398 C 110.3173675537109 15.74233818054199 113.0603713989258 12.28888130187988 116.679443359375 9.846266746520996 C 120.2173538208008 7.458423614501953 124.3340301513672 6.196280956268311 128.5844268798828 6.196280956268311 C 131.1842346191406 6.196280956268311 133.7442626953125 6.672966480255127 136.1934204101563 7.613109588623047 C 141.4911804199219 9.646738052368164 145.679931640625 13.62168121337891 147.988037109375 18.80570983886719 C 150.2960968017578 23.9897518157959 150.4472503662109 29.76212310791016 148.4136199951172 35.05950927734375 L 146.4546203613281 40.16286468505859 L 96.12839508056641 52.71065139770508 L 96.12652587890625 52.71112442016602 Z" stroke="none" fill="#707070"/>
    </g>
    <g id="Subtraction_2" data-name="Subtraction 2" transform="translate(619.137 509.111) rotate(-20)">
      <path d="M 41.45449829101563 113.6391067504883 C 38.91644287109375 113.6392517089844 36.41665649414063 113.1737365722656 34.02458572387695 112.2555236816406 C 28.85191345214844 110.2697677612305 24.76202774047852 106.3883666992188 22.50834274291992 101.3263244628906 C 20.25468444824219 96.2642822265625 20.10712814331055 90.62776947021484 22.0928840637207 85.45510864257813 L 24.00071144104004 80.48497009277344 L 73.14427947998047 68.23215484619141 L 60.82591247558594 100.3229217529297 C 59.29252624511719 104.3175506591797 56.61412811279297 107.6896057128906 53.08026885986328 110.0745544433594 C 49.62521362304688 112.4063110351563 45.60508346557617 113.6389083862305 41.45449829101563 113.6391067504883 Z M 28.37552642822266 69.08807373046875 L 47.21368408203125 20.01249504089355 C 48.74712753295898 16.01776695251465 51.4254264831543 12.64565181732178 54.95904159545898 10.26070976257324 C 58.41402816772461 7.928837776184082 62.4339714050293 6.696280956268311 66.58431243896484 6.696280956268311 C 69.12265777587891 6.696280956268311 71.62239837646484 7.161795139312744 74.01412963867188 8.07989501953125 C 79.18720245361328 10.06565189361572 83.27735900878906 13.94703769683838 85.53115844726563 19.00908088684082 C 87.78489685058594 24.07110977172852 87.93248748779297 29.7076244354248 85.94673156738281 34.88031005859375 L 77.51914215087891 56.83517837524414 L 28.37552642822266 69.08807373046875 Z" stroke="none"/>
      <path d="M 41.45448684692383 113.1391067504883 C 45.50502777099609 113.1389236450195 49.42842864990234 111.9358978271484 52.80057144165039 109.6600952148438 C 56.24897003173828 107.3328399658203 58.8626708984375 104.0421371459961 60.35911178588867 100.1437377929688 L 72.33327484130859 68.94967651367188 L 24.37422752380371 80.90715789794922 L 22.55967140197754 85.63429260253906 C 20.62178421020508 90.68228149414063 20.76578521728516 96.18292236328125 22.96512794494629 101.1229553222656 C 25.16448402404785 106.0629959106445 29.15578460693359 109.8508377075195 34.20376968383789 111.7887268066406 C 36.53841400146484 112.6849060058594 38.97791290283203 113.1392517089844 41.45447158813477 113.1391067504883 L 41.45448684692383 113.1391067504883 M 29.18651580810547 68.37055206298828 L 77.14562225341797 56.41299057006836 L 85.47994232177734 34.70112228393555 C 87.41783905029297 29.65310859680176 87.27379608154297 24.1524658203125 85.07438659667969 19.21245193481445 C 82.87491607666016 14.27242374420166 78.88333129882813 10.48458099365234 73.83494567871094 8.546694755554199 C 71.50062561035156 7.650623798370361 69.0611572265625 7.196280956268311 66.58431243896484 7.196280956268311 C 62.53402709960938 7.196280956268311 58.61079788208008 8.399251937866211 55.2387580871582 10.67513847351074 C 51.79058456420898 13.00242328643799 49.17698669433594 16.29318046569824 47.68048477172852 20.19168090820313 L 29.18651580810547 68.37055206298828 M 41.45452880859375 114.1391067504883 C 38.85494232177734 114.1392517089844 36.29487228393555 113.6625671386719 33.84539794921875 112.7223129272461 C 28.54801368713379 110.6886825561523 24.35955619812012 106.7137069702148 22.05157089233398 101.5296783447266 C 19.74358558654785 96.34562683105469 19.59248542785645 90.57324981689453 21.6260986328125 85.27590942382813 L 23.62719917297363 80.06279754638672 L 73.95526885986328 67.51465606689453 L 61.29269790649414 100.5021057128906 C 59.72237014770508 104.5929794311523 56.97927093505859 108.0463943481445 53.35997009277344 110.4889984130859 C 49.82198333740234 112.8767242431641 45.70514297485352 114.1389083862305 41.45452880859375 114.1391067504883 Z M 27.56452751159668 69.80558013916016 L 27.56522750854492 69.80377960205078 L 46.74689865112305 19.83330917358398 C 48.31728363037109 15.74233818054199 51.06027221679688 12.28888130187988 54.67932891845703 9.846266746520996 C 58.21724319458008 7.458423614501953 62.33391189575195 6.196280956268311 66.58431243896484 6.196280956268311 C 69.18414306640625 6.196280956268311 71.74417114257813 6.672966480255127 74.19331359863281 7.613109588623047 C 79.49107360839844 9.646723747253418 83.67981719970703 13.62168121337891 85.98793029785156 18.80570983886719 C 88.29599761962891 23.9897518157959 88.4471435546875 29.76212310791016 86.41351318359375 35.05950927734375 L 77.89265441894531 57.25735092163086 L 27.56639862060547 69.80510711669922 L 27.56452751159668 69.80558013916016 Z" stroke="none" fill="#707070"/>
    </g>
    <text id="Kanbano" transform="translate(803 591)" font-size="132" font-family="Lato-Black, Lato" font-weight="800"><tspan x="0" y="0">Kanbano</tspan></text>
  </g>
</svg>
