<svg xmlns="http://www.w3.org/2000/svg" xmlns:xlink="http://www.w3.org/1999/xlink" xmlns:fi="http://pattern.flaticon.com/" x="0" y="0" width="700" height="350" viewBox="0 0 700 350"><rect x="0px" y="0px" width="100%" height="100%" opacity="0" fill="#f7fffa"/><defs><g transform="matrix(0.11718757450580597 0 0 0.11718757450580597 267.00000017578145 99)" id="L1_27"><path d="m347.339844 155.148438c-5.519532 0-10 4.46875-10 9.996093 0 5.523438 4.480468 10 10 10 5.53125 0 10-4.476562 10-10 0-5.527343-4.46875-9.996093-10-9.996093zm0 0"/><path d="m165.644531 336.839844c-5.53125 0-10 4.480468-10 10 0 5.53125 4.46875 10 10 10 5.519531 0 10-4.46875 10-10 0-5.519532-4.480469-10-10-10zm0 0"/><path d="m500.058594 61.519531c-3.375-.785156-6.921875.234375-9.359375 2.695313l-41.457031 41.785156h-19.875l-21.878907-22.667969v-20.152343l40.863281-41.472657c2.417969-2.453125 3.402344-5.980469 2.601563-9.335937-.796875-3.351563-3.265625-6.054688-6.53125-7.15625-10.265625-3.460938-21.007813-5.214844-31.933594-5.214844-32.570312 0-62.160156 15.1875-81.183593 41.667969-17.804688 24.789062-23.292969 55.167969-15.429688 84.242187l-73.660156 73.660156-122.71875-123v-24.140624c0-3.511719-1.84375-6.769532-4.855469-8.574219l-70.707031-42.429688c-3.9375-2.363281-8.972656-1.742187-12.214844 1.503907l-28.28125 28.277343c-3.242188 3.246094-3.863281 8.28125-1.503906 12.21875l42.421875 70.707031c1.804687 3.011719 5.058593 4.851563 8.570312 4.855469l24.132813.007813 122.730468 123-73.378906 73.378906c-29.074218-7.859375-59.46875-2.363281-84.269531 15.453125-26.464844 19.011719-41.640625 48.59375-41.640625 81.164063 0 10.921874 1.753906 21.667968 5.214844 31.929687 1.105468 3.285156 3.835937 5.765625 7.210937 6.546875 3.378907.785156 6.921875-.234375 9.363281-2.695312l41.453126-41.78125h19.984374l22.769532 22.769531v19.984375l-41.78125 41.453125c-2.460938 2.441406-3.480469 5.984375-2.695313 9.363281.78125 3.375 3.261719 6.105469 6.546875 7.210938 10.261719 3.460937 21.007813 5.214843 31.929688 5.214843 32.570312 0 62.148437-15.179687 81.164062-41.644531 17.816406-24.800781 23.3125-55.191406 15.453125-84.265625l58.933594-58.933594 13.5 14.664063-6.195313 6.191406c-3.90625 3.90625-3.90625 10.238281 0 14.144531 3.90625 3.902344 10.234376 3.902344 14.144532 0l5.609375-5.609375 126.664062 137.585938c.09375.101562.191407.199218.289063.296875 23.4375 23.4375 61.410156 23.445312 84.859375-.003907 23.382812-23.394531 23.382812-61.460937 0-84.855468-.101563-.101563-.207031-.199219-.3125-.296875l-137.800781-126.421875 5.546874-5.546875c3.90625-3.902344 3.90625-10.234375 0-14.140625s-10.234374-3.90625-14.144531 0l-6.152343 6.15625-14.691407-13.484375 59.21875-59.21875c8.417969 2.25 17.105469 3.390625 25.90625 3.390625 55.140625 0 99.996094-44.859375 99.996094-99.996094 0-10.925781-1.753906-21.667969-5.214844-31.933594-1.105469-3.285156-3.835937-5.765625-7.210937-6.546875zm-411.773438 40.414063c-1.875-1.878906-4.417968-2.835938-7.074218-2.835938l-22.617188-.007812-35.492188-59.257813 17.238282-17.238281 59.15625 35.5v22.617188c0 2.648437 1.050781 5.1875 2.921875 7.0625l125.65625 125.941406-14.144531 14.140625zm254.363282 195.0625 138.269531 126.847656c15.445312 15.609375 15.398437 40.882812-.144531 56.433594-15.578126 15.578125-40.796876 15.625-56.4375.136718l-127.078126-138.035156zm-14.75-13.535156-44.199219 44.191406-13.5-14.664063 43.007812-43.011719zm84.589843-103.464844c-8.746093 0-17.347656-1.402344-25.558593-4.167969-3.597657-1.207031-7.574219-.277344-10.261719 2.40625-50.132813 50.132813-158.15625 158.152344-197.933594 197.933594-2.6875 2.6875-3.621094 6.664062-2.40625 10.265625 8.3125 24.683594 4.335937 51.011718-10.914063 72.242187-15.207031 21.167969-38.871093 33.3125-64.917968 33.3125-2.925782 0-5.835938-.160156-8.71875-.46875l31.761718-31.515625c1.890626-1.875 2.957032-4.429687 2.957032-7.097656v-28.289062c0-2.652344-1.054688-5.195313-2.929688-7.070313l-28.628906-28.628906c-1.875-1.875-4.417969-2.929688-7.070312-2.929688h-28.289063c-2.667969 0-5.222656 1.066407-7.101563 2.957031l-31.511718 31.761719c-.3125-2.882812-.46875-5.792969-.46875-8.71875 0-26.050781 12.140625-49.710937 33.3125-64.917969 21.226562-15.25 47.558594-19.230468 72.246094-10.914062 3.597656 1.214844 7.574218.28125 10.261718-2.40625.550782-.546875 197.792969-197.792969 197.933594-197.933594 2.6875-2.6875 3.617188-6.660156 2.40625-10.261718-8.316406-24.683594-4.347656-51.003907 10.890625-72.21875 15.21875-21.1875 38.886719-33.335938 64.9375-33.335938 3.015625 0 6.011719.167969 8.980469.496094l-31.101563 31.566406c-1.84375 1.871094-2.875 4.390625-2.875 7.015625v28.289063c0 2.59375 1.003907 5.082031 2.804688 6.945312l27.628906 28.628906c1.882813 1.953125 4.480469 3.054688 7.195313 3.054688h28.289062c2.664062 0 5.21875-1.0625 7.097656-2.957032l31.511719-31.757812c.3125 2.882812.46875 5.792969.46875 8.71875 0 44.109375-35.886719 79.996094-79.996094 79.996094zm0 0"/><path d="m311.988281 186.355469-125.136719 125.136719c-3.902343 3.902343-3.902343 10.234374 0 14.140624 3.90625 3.90625 10.238282 3.90625 14.144532 0l125.136718-125.136718c3.90625-3.902344 3.90625-10.234375 0-14.140625s-10.238281-3.90625-14.144531 0zm0 0"/><path d="m438.355469 452c3.90625 3.894531 10.238281 3.894531 14.144531-.023438 3.898438-3.910156 3.886719-10.242187-.023438-14.140624l-90.136718-89.847657c-3.910156-3.898437-10.246094-3.886719-14.140625.023438-3.902344 3.914062-3.890625 10.242187.019531 14.140625zm0 0"/></g><g transform="matrix(0.1171875 0 0 0.1171875 71 268)" id="L1_28"><path d="M458.667,192H352c-5.888,0-10.667,4.779-10.667,10.667s4.779,10.667,10.667,10.667h106.667c17.643,0,32,14.357,32,32    v213.333c0,17.643-14.357,32-32,32H245.333c-17.643,0-32-14.357-32-32v-85.333c0-5.888-4.779-10.667-10.667-10.667    S192,367.445,192,373.333v85.333C192,488.064,215.936,512,245.333,512h213.333C488.064,512,512,488.064,512,458.667V245.333    C512,215.936,488.064,192,458.667,192z"/><path d="M160,298.667h-10.667c-5.888,0-10.667,4.779-10.667,10.667S143.445,320,149.333,320H160    c5.888,0,10.667-4.779,10.667-10.667S165.888,298.667,160,298.667z"/><g><path d="M62.741,0h-9.408C48.235,0,43.2,0.725,38.357,2.133c-5.653,1.664-8.896,7.595-7.253,13.248     c1.365,4.651,5.632,7.659,10.24,7.659c1.003,0,2.005-0.128,3.008-0.427c2.901-0.853,5.909-1.28,8.981-1.28h9.408     c5.909,0,10.667-4.779,10.667-10.667S68.629,0,62.741,0z"/><path d="M21.333,257.216v-21.568c0-5.888-4.779-10.667-10.667-10.667S0,229.76,0,235.648v21.568     c0,5.888,4.779,10.667,10.667,10.667S21.333,263.104,21.333,257.216z"/><path d="M10.667,203.179c5.888,0,10.667-4.779,10.667-10.667v-21.568c0-5.888-4.779-10.667-10.667-10.667S0,165.056,0,170.944     v21.568C0,198.4,4.779,203.179,10.667,203.179z"/><path d="M10.667,73.792c5.888,0,10.667-4.779,10.667-10.667v-9.792c0-2.965,0.405-5.888,1.195-8.704     c1.6-5.675-1.685-11.563-7.36-13.163c-5.632-1.685-11.563,1.664-13.163,7.36C0.683,43.541,0,48.427,0,53.333v9.792     C0,69.013,4.779,73.792,10.667,73.792z"/><path d="M10.667,138.496c5.888,0,10.667-4.779,10.667-10.667v-21.568c0-5.888-4.779-10.667-10.667-10.667S0,100.373,0,106.261     v21.568C0,133.717,4.779,138.496,10.667,138.496z"/><path d="M44.587,297.451c-5.163-1.472-9.941-4.267-13.781-8.085c-4.16-4.16-10.923-4.117-15.083,0.043     c-4.16,4.181-4.139,10.944,0.043,15.083c6.4,6.379,14.357,11.029,22.997,13.483c0.981,0.277,1.963,0.405,2.923,0.405     c4.629,0,8.917-3.051,10.24-7.744C53.547,304.96,50.261,299.051,44.587,297.451z"/><path d="M307.605,51.968c0.981,0,1.984-0.128,2.987-0.448c5.653-1.664,8.917-7.573,7.253-13.227     c-2.517-8.619-7.253-16.533-13.675-22.891c-4.181-4.139-10.944-4.117-15.083,0.085c-4.139,4.181-4.096,10.944,0.085,15.083     c3.84,3.84,6.699,8.576,8.192,13.717C298.731,48.939,302.976,51.968,307.605,51.968z"/><path d="M256.832,0h-21.568c-5.888,0-10.667,4.779-10.667,10.667s4.779,10.667,10.667,10.667h21.568     c5.888,0,10.667-4.779,10.667-10.667S262.72,0,256.832,0z"/><path d="M106.219,298.667H84.651c-5.888,0-10.667,4.779-10.667,10.667S78.763,320,84.651,320h21.568     c5.888,0,10.667-4.779,10.667-10.667S112.107,298.667,106.219,298.667z"/><path d="M309.333,73.6c-5.888,0-10.667,4.779-10.667,10.667v21.568c0,5.888,4.779,10.667,10.667,10.667S320,111.723,320,105.835     V84.267C320,78.357,315.221,73.6,309.333,73.6z"/><path d="M192.149,0h-21.568c-5.909,0-10.667,4.779-10.667,10.667s4.779,10.667,10.667,10.667h21.547     c5.909,0,10.688-4.779,10.688-10.667S198.037,0,192.149,0z"/><path d="M127.445,0h-21.568c-5.888,0-10.667,4.779-10.667,10.667s4.779,10.667,10.667,10.667h21.568     c5.888,0,10.667-4.779,10.667-10.667S133.333,0,127.445,0z"/></g><path d="M309.333,138.667c-5.888,0-10.667,4.779-10.667,10.667V160c0,5.888,4.779,10.667,10.667,10.667S320,165.888,320,160    v-10.667C320,143.445,315.221,138.667,309.333,138.667z"/><path d="M349.952,185.515l-33.067-33.067c-12.971-12.971-34.112-12.971-47.083,0c-3.883,3.883-6.613,8.512-8.171,13.419    c-11.627-4.053-25.536-1.045-34.496,7.915c-4.885,4.885-7.915,10.923-9.131,17.237c-10.176-1.429-20.8,2.027-28.203,9.429    c-7.083,7.083-10.304,16.576-9.664,25.856c-7.189,0.981-13.824,4.245-19.029,9.451c-6.293,6.293-9.749,14.656-9.749,23.552    s3.456,17.28,9.749,23.552l9.557,9.557v38.251C170.667,360.064,194.603,384,224,384h43.733C331.84,384,384,331.84,384,267.733    C384,236.693,371.904,207.488,349.952,185.515z M267.733,362.667H224c-17.643,0-32-14.357-32-32v-16.917l24.469,24.469    c4.16,4.16,10.923,4.16,15.083,0c2.069-2.091,3.115-4.821,3.115-7.552c0-2.731-1.045-5.461-3.115-7.552l-55.36-55.36    c-2.261-2.24-3.499-5.269-3.499-8.448c0-3.179,1.237-6.187,3.499-8.448c4.523-4.523,12.395-4.523,16.917,0l23.36,23.36    c4.16,4.16,10.923,4.16,15.083,0c2.069-2.091,3.115-4.821,3.115-7.552c0-2.731-1.045-5.461-3.115-7.531l-26.667-26.667    c-4.672-4.672-4.672-12.245,0-16.917c4.523-4.523,12.395-4.523,16.917,0l16,16c4.16,4.16,10.923,4.16,15.083,0    c2.069-2.091,3.115-4.821,3.115-7.552s-1.045-5.461-3.115-7.531l-10.667-10.667c-4.672-4.672-4.672-12.245,0-16.917    c4.523-4.523,12.395-4.523,16.917,0l10.667,10.667c4.16,4.16,10.923,4.16,15.083,0c2.069-2.091,3.115-4.821,3.115-7.552    s-1.045-5.461-3.136-7.552c-2.261-2.24-3.499-5.248-3.499-8.448s1.259-6.208,3.52-8.448c4.672-4.672,12.245-4.672,16.917,0    l33.067,33.067c17.92,17.92,27.797,41.771,27.797,67.115C362.667,320.085,320.085,362.667,267.733,362.667z"/></g><g transform="matrix(0.1171875 0 0 0.1171875 258 268)" id="L1_29"><path d="M255.999,0c-79.044,0-143.352,64.308-143.352,143.353v70.193c0,4.78,3.879,8.656,8.659,8.656h48.057    c4.78,0,8.656-3.876,8.656-8.656v-70.193c0-42.998,34.981-77.98,77.979-77.98s77.979,34.982,77.979,77.98v70.193    c0,4.78,3.88,8.656,8.661,8.656h48.057c4.78,0,8.656-3.876,8.656-8.656v-70.193C399.352,64.308,335.044,0,255.999,0z     M382.04,204.89h-30.748v-61.537c0-52.544-42.748-95.292-95.291-95.292s-95.291,42.748-95.291,95.292v61.537h-30.748v-61.537    c0-69.499,56.54-126.04,126.038-126.04c69.499,0,126.04,56.541,126.04,126.04V204.89z"/><path d="M410.63,204.89H101.371c-20.505,0-37.188,16.683-37.188,37.188v232.734c0,20.505,16.683,37.188,37.188,37.188H410.63    c20.505,0,37.187-16.683,37.187-37.189V242.078C447.817,221.573,431.135,204.89,410.63,204.89z M430.505,474.811    c0,10.96-8.916,19.876-19.875,19.876H101.371c-10.96,0-19.876-8.916-19.876-19.876V242.078c0-10.96,8.916-19.876,19.876-19.876    H410.63c10.959,0,19.875,8.916,19.875,19.876V474.811z"/><path d="M285.11,369.781c10.113-8.521,15.998-20.978,15.998-34.365c0-24.873-20.236-45.109-45.109-45.109    c-24.874,0-45.11,20.236-45.11,45.109c0,13.387,5.885,25.844,16,34.367l-9.731,46.362c-0.535,2.554,0.108,5.211,1.752,7.236    c1.645,2.023,4.113,3.2,6.72,3.2h60.738c2.608,0,5.076-1.176,6.719-3.2c1.643-2.026,2.286-4.683,1.751-7.234L285.11,369.781z     M270.851,358.82c-3.04,1.936-4.565,5.553-3.824,9.081l8.68,41.366h-39.415l8.682-41.363c0.74-3.529-0.782-7.146-3.824-9.081    c-8.108-5.16-12.948-13.911-12.948-23.406c0-15.327,12.469-27.796,27.797-27.796c15.327,0,27.796,12.469,27.796,27.796    C283.797,344.914,278.957,353.663,270.851,358.82z"/></g><g transform="matrix(0.1171875 0 0 0.1171875 77.00000031471251 99)" id="L1_31"><path d="M196.948,0C107.071,0,33.95,73.121,33.95,162.998v237.536c0,22.068,6.402,43.346,18.513,61.534     c2.296,3.448,6.952,4.38,10.4,2.085c3.447-2.296,4.381-6.952,2.085-10.4c-10.466-15.717-15.999-34.12-15.999-53.219V162.998     C48.95,81.392,115.342,15,196.948,15s147.997,66.392,147.997,147.998c0,77.495-29.077,116.418-59.862,157.627     c-20.968,28.069-42.65,57.093-54.469,98.815c-7.961,28.103-18.55,47.768-32.373,60.118C184.923,491.458,168.465,497,146.447,497     c-21.659,0-42.129-6.792-59.198-19.64c-3.311-2.491-8.011-1.828-10.503,1.481c-2.491,3.31-1.828,8.012,1.481,10.503     c19.69,14.821,43.28,22.656,68.22,22.656c50.858,0,81.267-27.286,98.6-88.472c11.063-39.054,30.974-65.707,52.054-93.926     c30.897-41.358,62.845-84.126,62.845-166.605C359.945,73.121,286.825,0,196.948,0z"/><path d="M257.764,88.979c-19.17-15.308-43.232-23.738-67.753-23.738c-59.964,0-108.748,48.784-108.748,108.748     c0,4.142,3.358,7.5,7.5,7.5c4.142,0,7.5-3.358,7.5-7.5c0-15.417,3.743-29.975,10.364-42.817     c16.385-10.78,52.742-8.609,78.889,10.857c36.056,26.843,28.18,66.868,20.275,88.337c-1.431,3.887,0.56,8.198,4.447,9.629     c0.855,0.315,1.73,0.464,2.59,0.464c3.053,0,5.923-1.878,7.039-4.911c8.545-23.211,10.035-44.635,4.426-63.678     c-4.855-16.485-15.167-30.965-29.82-41.874c-21.461-15.978-50.259-22.909-73.372-19.498     c17.142-18.591,41.688-30.258,68.91-30.258c21.439,0,41.631,7.075,58.393,20.46c16.277,12.997,27.909,31.219,32.753,51.307     c0.971,4.027,5.022,6.506,9.049,5.533c4.026-0.971,6.504-5.022,5.533-9.049C290.117,125.18,276.631,104.045,257.764,88.979z"/><path d="M106.235,356.586c7.116,20.92,24.359,35.104,46.124,37.94c3.038,0.396,5.99,0.594,8.864,0.594     c14.667,0,27.26-5.172,38.29-15.681c10.878-10.363,18.514-24.448,25.251-36.875c3.356-6.191,6.527-12.039,9.797-16.931     c0.035-0.052,0.069-0.104,0.102-0.157c5.106-8.066,10.62-16.051,15.961-23.784c23.227-33.63,45.166-65.396,47.862-117.137     c0.216-4.136-2.963-7.665-7.1-7.88c-4.128-0.212-7.665,2.963-7.88,7.1c-2.475,47.496-23.241,77.561-45.233,109.404     c-5.4,7.819-10.983,15.904-16.235,24.196c-3.636,5.45-6.952,11.566-10.462,18.04c-12.87,23.74-26.167,48.29-57.279,44.236     c-15.969-2.082-28.627-12.51-33.862-27.897c-5.388-15.839-1.725-32.688,9.558-43.971c7.787-7.786,12.075-18.139,12.075-29.15     c0-22.732-18.493-41.225-41.225-41.225c-4.142,0-7.5,3.358-7.5,7.5c0,4.142,3.358,7.5,7.5,7.5     c14.46,0,26.225,11.764,26.225,26.225c0,7.005-2.728,13.59-7.681,18.544C104.032,312.532,98.992,335.296,106.235,356.586z"/><path d="M375.851,281.934c0-33.391,13.003-64.783,36.614-88.394c2.929-2.929,2.929-7.678,0-10.607     c-2.929-2.929-7.678-2.929-10.607,0c-26.444,26.444-41.007,61.604-41.007,99c0,37.398,14.564,72.557,41.007,99.001     c1.464,1.464,3.384,2.197,5.303,2.197s3.839-0.732,5.303-2.197c2.929-2.929,2.929-7.678,0-10.607     C388.853,346.717,375.851,315.325,375.851,281.934z"/><path d="M465.476,281.934c0-9.433,3.685-18.313,10.377-25.005c2.929-2.929,2.929-7.677,0-10.606     c-2.929-2.93-7.678-2.929-10.607,0c-9.525,9.524-14.771,22.172-14.771,35.612s5.246,26.087,14.771,35.612     c1.464,1.464,3.384,2.197,5.303,2.197s3.839-0.732,5.303-2.197c2.93-2.93,2.93-7.679,0.001-10.607     C469.161,300.248,465.476,291.367,465.476,281.934z"/><path d="M444.181,214.649c-2.929-2.929-7.678-2.929-10.607,0c-17.999,17.999-27.912,41.895-27.912,67.284     c0,25.39,9.913,49.285,27.912,67.284c1.464,1.464,3.384,2.197,5.303,2.197c1.92,0,3.839-0.733,5.303-2.197     c2.929-2.929,2.929-7.678,0-10.607c-15.166-15.166-23.518-35.294-23.518-56.678c0-21.384,8.352-41.512,23.518-56.678     C447.11,222.327,447.11,217.578,444.181,214.649z"/></g></defs><g fi:class="KUsePattern"><pattern id="pattern_L1_27" width="350" height="350" patternUnits="userSpaceOnUse"><use xlink:href="#L1_27" x="-350" y="-350"/><use xlink:href="#L1_27" x="0" y="-350"/><use xlink:href="#L1_27" x="350" y="-350"/><use xlink:href="#L1_27" x="-350" y="0"/><use xlink:href="#L1_27" x="0" y="0"/><use xlink:href="#L1_27" x="350" y="0"/><use xlink:href="#L1_27" x="-350" y="350"/><use xlink:href="#L1_27" x="0" y="350"/><use xlink:href="#L1_27" x="350" y="350"/></pattern><rect x="0" y="0" width="100%" height="100%" fill="url(#pattern_L1_27)"/></g><g fi:class="KUsePattern"><pattern id="pattern_L1_28" width="350" height="350" patternUnits="userSpaceOnUse"><use xlink:href="#L1_28" x="-350" y="-350"/><use xlink:href="#L1_28" x="0" y="-350"/><use xlink:href="#L1_28" x="350" y="-350"/><use xlink:href="#L1_28" x="-350" y="0"/><use xlink:href="#L1_28" x="0" y="0"/><use xlink:href="#L1_28" x="350" y="0"/><use xlink:href="#L1_28" x="-350" y="350"/><use xlink:href="#L1_28" x="0" y="350"/><use xlink:href="#L1_28" x="350" y="350"/></pattern><rect x="0" y="0" width="100%" height="100%" fill="url(#pattern_L1_28)"/></g><g fi:class="KUsePattern"><pattern id="pattern_L1_29" width="350" height="350" patternUnits="userSpaceOnUse"><use xlink:href="#L1_29" x="-350" y="-350"/><use xlink:href="#L1_29" x="0" y="-350"/><use xlink:href="#L1_29" x="350" y="-350"/><use xlink:href="#L1_29" x="-350" y="0"/><use xlink:href="#L1_29" x="0" y="0"/><use xlink:href="#L1_29" x="350" y="0"/><use xlink:href="#L1_29" x="-350" y="350"/><use xlink:href="#L1_29" x="0" y="350"/><use xlink:href="#L1_29" x="350" y="350"/></pattern><rect x="0" y="0" width="100%" height="100%" fill="url(#pattern_L1_29)"/></g><g fi:class="KUsePattern"><pattern id="pattern_L1_31" width="350" height="350" patternUnits="userSpaceOnUse"><use xlink:href="#L1_31" x="-350" y="-350"/><use xlink:href="#L1_31" x="0" y="-350"/><use xlink:href="#L1_31" x="350" y="-350"/><use xlink:href="#L1_31" x="-350" y="0"/><use xlink:href="#L1_31" x="0" y="0"/><use xlink:href="#L1_31" x="350" y="0"/><use xlink:href="#L1_31" x="-350" y="350"/><use xlink:href="#L1_31" x="0" y="350"/><use xlink:href="#L1_31" x="350" y="350"/></pattern><rect x="0" y="0" width="100%" height="100%" fill="url(#pattern_L1_31)"/></g></svg>