<svg xmlns="http://www.w3.org/2000/svg" width="1087" height="710" viewBox="0 0 1087 710">
  <g id="template" transform="translate(-387 -261)">
    <rect id="Rectangle_4" data-name="Rectangle 4" width="1087" height="710" rx="26" transform="translate(387 261)" fill="#f5f5f5"/>
    <path id="Path_2" data-name="Path 2" d="M3.211.293A2.16,2.16,0,0,1,1.688-.27a1.808,1.808,0,0,1-.609-1.383,1.741,1.741,0,0,1,.627-1.383A2.315,2.315,0,0,1,3.27-3.574a2.228,2.228,0,0,1,1.553.545,1.775,1.775,0,0,1,.6,1.377,1.786,1.786,0,0,1-.615,1.4A2.323,2.323,0,0,1,3.211.293Zm8.6-1.687h-.047V0h-3.7V-17.766h3.7v7.57h.047a4.394,4.394,0,0,1,3.9-2.1A4.282,4.282,0,0,1,19.289-10.7,6.873,6.873,0,0,1,20.543-6.34a7.443,7.443,0,0,1-1.465,4.816A4.772,4.772,0,0,1,15.164.293,3.781,3.781,0,0,1,11.813-1.395Zm-.105-5.062v1.23A2.809,2.809,0,0,0,12.375-3.3a2.173,2.173,0,0,0,1.711.762,2.27,2.27,0,0,0,1.963-.979,4.725,4.725,0,0,0,.7-2.771,3.759,3.759,0,0,0-.639-2.326,2.155,2.155,0,0,0-1.822-.838,2.354,2.354,0,0,0-1.846.832A3.161,3.161,0,0,0,11.707-6.457ZM28.664.293a6.451,6.451,0,0,1-4.717-1.682A6.1,6.1,0,0,1,22.23-5.953a6.1,6.1,0,0,1,1.781-4.658,6.73,6.73,0,0,1,4.816-1.682,6.373,6.373,0,0,1,4.688,1.682,5.978,5.978,0,0,1,1.7,4.447,6.345,6.345,0,0,1-1.752,4.723A6.522,6.522,0,0,1,28.664.293Zm.094-9.75a2.47,2.47,0,0,0-2.039.9A3.979,3.979,0,0,0,25.992-6q0,3.457,2.789,3.457,2.66,0,2.66-3.551Q31.441-9.457,28.758-9.457ZM47.367,0h-3.5V-1.723h-.047A3.911,3.911,0,0,1,40.242.293,3.739,3.739,0,0,1,37.494-.7a3.548,3.548,0,0,1-1-2.643q0-3.492,4.137-4.031L43.887-7.8q0-1.969-2.133-1.969A7.28,7.28,0,0,0,37.676-8.5v-2.789a9.175,9.175,0,0,1,2.115-.7,11.119,11.119,0,0,1,2.443-.3q5.133,0,5.133,5.121Zm-3.48-4.875v-.809l-2.18.281c-1.2.156-1.8,1.629-1.8,1.629a2.454,2.454,0,0,0,.439,1.037,1.689,1.689,0,0,0,1.189.4,2.192,2.192,0,0,0,1.7-.721A2.6,2.6,0,0,0,43.887-4.875ZM58.125-8.66a3.212,3.212,0,0,0-1.559-.363,2.245,2.245,0,0,0-1.887.885A3.86,3.86,0,0,0,54-5.73V0H50.3V-12H54v2.227h.047a3.2,3.2,0,0,1,3.164-2.437,2.385,2.385,0,0,1,.914.141ZM71.5,0h-3.7V-1.652h-.047A4.152,4.152,0,0,1,64.031.293,4.55,4.55,0,0,1,60.41-1.295,6.573,6.573,0,0,1,59.039-5.73a7.154,7.154,0,0,1,1.512-4.77,4.931,4.931,0,0,1,3.961-1.793,3.369,3.369,0,0,1,3.234,1.664h.047v-7.137h3.7ZM67.863-5.836v-.9a2.839,2.839,0,0,0-.68-1.945,2.245,2.245,0,0,0-1.77-.773,2.231,2.231,0,0,0-1.922.967A4.49,4.49,0,0,0,62.8-5.836,3.885,3.885,0,0,0,63.469-3.4a2.218,2.218,0,0,0,1.852.855,2.227,2.227,0,0,0,1.834-.9A3.761,3.761,0,0,0,67.863-5.836Z" transform="translate(428 308)"/>
    <g id="Group_6" data-name="Group 6" transform="translate(-179.487)">
      <g id="Group_3" data-name="Group 3" transform="translate(695 382.395)">
        <rect id="Rectangle_6" data-name="Rectangle 6" width="238" height="533" rx="25" transform="translate(0.487 -0.395)" fill="#fff"/>
        <rect id="Rectangle_8" data-name="Rectangle 8" width="137" height="65" rx="25" transform="translate(50.487 50.605)" fill="#f6f6f6"/>
        <rect id="Rectangle_9" data-name="Rectangle 9" width="137" height="66" rx="25" transform="translate(50.487 158.605)" fill="#f6f6f6"/>
        <rect id="Rectangle_10" data-name="Rectangle 10" width="137" height="65" rx="25" transform="translate(50.487 267.605)" fill="#f6f6f6"/>
      </g>
      <g id="Group_4" data-name="Group 4" transform="translate(988.148 333)">
        <rect id="Rectangle_6-2" data-name="Rectangle 6" width="238" height="533" rx="25" transform="translate(0.34 49)" fill="#fff"/>
        <rect id="Rectangle_8-2" data-name="Rectangle 8" width="138" height="66" rx="25" transform="translate(50.34 175)" fill="#f6f6f6"/>
        <rect id="Rectangle_9-2" data-name="Rectangle 9" width="138" height="66" rx="25" transform="translate(50.34 283)" fill="#f6f6f6"/>
        <rect id="Rectangle_10-2" data-name="Rectangle 10" width="138" height="65" rx="25" transform="translate(50.34 392)" fill="#f6f6f6"/>
        <path id="Path_6" data-name="Path 6" d="M3.345.305A2.25,2.25,0,0,1,1.758-.281a1.884,1.884,0,0,1-.635-1.44,1.814,1.814,0,0,1,.653-1.44,2.411,2.411,0,0,1,1.63-.562,2.321,2.321,0,0,1,1.617.568,1.849,1.849,0,0,1,.629,1.434A1.86,1.86,0,0,1,5.011-.262,2.42,2.42,0,0,1,3.345.305ZM12.256,0H8.4V-18.506h3.857Zm5.2-14.478a2.253,2.253,0,0,1-1.6-.58,1.868,1.868,0,0,1-.623-1.422,1.8,1.8,0,0,1,.623-1.416,2.328,2.328,0,0,1,1.6-.549,2.322,2.322,0,0,1,1.605.549,1.81,1.81,0,0,1,.616,1.416,1.861,1.861,0,0,1-.616,1.44A2.291,2.291,0,0,1,17.456-14.478ZM19.36,0H15.5V-12.5H19.36ZM21.79-.33V-3.455a8.213,8.213,0,0,0,1.9.854,6.294,6.294,0,0,0,1.788.281A3.836,3.836,0,0,0,27.094-2.6a.907.907,0,0,0,.592-.854.791.791,0,0,0-.269-.61,2.5,2.5,0,0,0-.69-.427,7.827,7.827,0,0,0-.922-.33q-.5-.146-.964-.33a9.24,9.24,0,0,1-1.312-.6,3.793,3.793,0,0,1-.952-.751,2.951,2.951,0,0,1-.586-.989,3.946,3.946,0,0,1-.2-1.331,3.425,3.425,0,0,1,.458-1.807,3.739,3.739,0,0,1,1.221-1.239,5.578,5.578,0,0,1,1.746-.708,9.1,9.1,0,0,1,2.045-.226,11.345,11.345,0,0,1,1.685.128,12.573,12.573,0,0,1,1.685.372v2.979a6.087,6.087,0,0,0-1.569-.641,6.617,6.617,0,0,0-1.642-.214,3.638,3.638,0,0,0-.714.067,2.352,2.352,0,0,0-.592.2,1.087,1.087,0,0,0-.4.33.759.759,0,0,0-.146.458.846.846,0,0,0,.22.586,1.908,1.908,0,0,0,.574.421,5.664,5.664,0,0,0,.787.317q.433.14.861.287a11.189,11.189,0,0,1,1.392.586,4.45,4.45,0,0,1,1.068.745,2.924,2.924,0,0,1,.684,1,3.558,3.558,0,0,1,.238,1.367,3.566,3.566,0,0,1-.482,1.9A3.86,3.86,0,0,1,29.62-.641a5.813,5.813,0,0,1-1.843.72A10.219,10.219,0,0,1,25.61.305,11.17,11.17,0,0,1,21.79-.33Zm19.373.183a5.7,5.7,0,0,1-2.576.452q-4.077,0-4.077-4.236V-9.656H32.483V-12.5h2.026v-2.7l3.845-1.1v3.8h2.808v2.844H38.354V-4.6q0,1.953,1.55,1.953A2.614,2.614,0,0,0,41.162-3Z" transform="translate(7.34 25)"/>
        <path id="Path_5" data-name="Path 5" d="M3.345.305A2.25,2.25,0,0,1,1.758-.281a1.884,1.884,0,0,1-.635-1.44,1.814,1.814,0,0,1,.653-1.44,2.411,2.411,0,0,1,1.63-.562,2.321,2.321,0,0,1,1.617.568,1.849,1.849,0,0,1,.629,1.434A1.86,1.86,0,0,1,5.011-.262,2.42,2.42,0,0,1,3.345.305ZM17.871-.452A7.627,7.627,0,0,1,14.1.305,6.379,6.379,0,0,1,9.436-1.44a6.029,6.029,0,0,1-1.782-4.5,6.641,6.641,0,0,1,1.91-5.023,7.06,7.06,0,0,1,5.109-1.837,6.555,6.555,0,0,1,3.2.586v3.271a4.4,4.4,0,0,0-2.7-.9,3.555,3.555,0,0,0-2.631.97,3.621,3.621,0,0,0-.97,2.679A3.562,3.562,0,0,0,12.5-3.595a3.41,3.41,0,0,0,2.551.946,5.091,5.091,0,0,0,2.82-.9ZM30.8,0h-3.65V-1.794H27.1a4.074,4.074,0,0,1-3.723,2.1A3.894,3.894,0,0,1,20.514-.726,3.7,3.7,0,0,1,19.47-3.479q0-3.638,4.309-4.2l3.394-.452q0-2.051-2.222-2.051A7.583,7.583,0,0,0,20.7-8.85v-2.905a9.557,9.557,0,0,1,2.2-.732,11.582,11.582,0,0,1,2.545-.317q5.347,0,5.347,5.334ZM27.173-5.078V-5.92L24.9-5.627q-1.88.244-1.88,1.7a1.4,1.4,0,0,0,.458,1.08,1.759,1.759,0,0,0,1.239.421,2.284,2.284,0,0,0,1.77-.751A2.712,2.712,0,0,0,27.173-5.078ZM42-9.021A3.346,3.346,0,0,0,40.381-9.4a2.339,2.339,0,0,0-1.965.922,4.021,4.021,0,0,0-.708,2.509V0H33.85V-12.5h3.857v2.319h.049a3.337,3.337,0,0,1,3.3-2.539,2.484,2.484,0,0,1,.952.146ZM55.933,0H52.075V-1.721h-.049A4.325,4.325,0,0,1,48.157.305a4.739,4.739,0,0,1-3.772-1.654,6.847,6.847,0,0,1-1.428-4.62,7.452,7.452,0,0,1,1.575-4.968,5.136,5.136,0,0,1,4.126-1.868,3.51,3.51,0,0,1,3.369,1.733h.049v-7.434h3.857ZM52.148-6.079v-.94a2.958,2.958,0,0,0-.708-2.026A2.338,2.338,0,0,0,49.6-9.851a2.323,2.323,0,0,0-2,1.007,4.677,4.677,0,0,0-.72,2.765,4.047,4.047,0,0,0,.7,2.539,2.31,2.31,0,0,0,1.929.891,2.32,2.32,0,0,0,1.91-.94A3.918,3.918,0,0,0,52.148-6.079Z" transform="translate(86.34 217)"/>
        <path id="Intersection_1" data-name="Intersection 1" d="M0,84V25A25,25,0,0,1,25,0H213a25,25,0,0,1,25,25V84Z" transform="translate(0.34 49)" fill="#ebebeb"/>
        <path id="Path_4" data-name="Path 4" d="M3.345.305A2.25,2.25,0,0,1,1.758-.281a1.884,1.884,0,0,1-.635-1.44,1.814,1.814,0,0,1,.653-1.44,2.411,2.411,0,0,1,1.63-.562,2.321,2.321,0,0,1,1.617.568,1.849,1.849,0,0,1,.629,1.434A1.86,1.86,0,0,1,5.011-.262,2.42,2.42,0,0,1,3.345.305ZM12.256,0H8.4V-18.506h3.857Zm5.2-14.478a2.253,2.253,0,0,1-1.6-.58,1.868,1.868,0,0,1-.623-1.422,1.8,1.8,0,0,1,.623-1.416,2.328,2.328,0,0,1,1.6-.549,2.322,2.322,0,0,1,1.605.549,1.81,1.81,0,0,1,.616,1.416,1.861,1.861,0,0,1-.616,1.44A2.291,2.291,0,0,1,17.456-14.478ZM19.36,0H15.5V-12.5H19.36ZM21.79-.33V-3.455a8.213,8.213,0,0,0,1.9.854,6.294,6.294,0,0,0,1.788.281A3.836,3.836,0,0,0,27.094-2.6a.907.907,0,0,0,.592-.854.791.791,0,0,0-.269-.61,2.5,2.5,0,0,0-.69-.427,7.827,7.827,0,0,0-.922-.33q-.5-.146-.964-.33a9.24,9.24,0,0,1-1.312-.6,3.793,3.793,0,0,1-.952-.751,2.951,2.951,0,0,1-.586-.989,3.946,3.946,0,0,1-.2-1.331,3.425,3.425,0,0,1,.458-1.807,3.739,3.739,0,0,1,1.221-1.239,5.578,5.578,0,0,1,1.746-.708,9.1,9.1,0,0,1,2.045-.226,11.345,11.345,0,0,1,1.685.128,12.573,12.573,0,0,1,1.685.372v2.979a6.087,6.087,0,0,0-1.569-.641,6.617,6.617,0,0,0-1.642-.214,3.638,3.638,0,0,0-.714.067,2.352,2.352,0,0,0-.592.2,1.087,1.087,0,0,0-.4.33.759.759,0,0,0-.146.458.846.846,0,0,0,.22.586,1.908,1.908,0,0,0,.574.421,5.664,5.664,0,0,0,.787.317q.433.14.861.287a11.189,11.189,0,0,1,1.392.586,4.45,4.45,0,0,1,1.068.745,2.924,2.924,0,0,1,.684,1,3.558,3.558,0,0,1,.238,1.367,3.566,3.566,0,0,1-.482,1.9A3.86,3.86,0,0,1,29.62-.641a5.813,5.813,0,0,1-1.843.72A10.219,10.219,0,0,1,25.61.305,11.17,11.17,0,0,1,21.79-.33Zm19.373.183a5.7,5.7,0,0,1-2.576.452q-4.077,0-4.077-4.236V-9.656H32.483V-12.5h2.026v-2.7l3.845-1.1v3.8h2.808v2.844H38.354V-4.6q0,1.953,1.55,1.953A2.614,2.614,0,0,0,41.162-3Zm7.849-5.176H42.334v-2.7h6.677ZM59.875-.146A5.7,5.7,0,0,1,57.3.305q-4.077,0-4.077-4.236V-9.656H51.2V-12.5h2.026v-2.7l3.845-1.1v3.8h2.808v2.844H57.068V-4.6q0,1.953,1.55,1.953A2.614,2.614,0,0,0,59.875-3ZM64-14.478a2.253,2.253,0,0,1-1.6-.58,1.868,1.868,0,0,1-.623-1.422A1.8,1.8,0,0,1,62.4-17.9a2.328,2.328,0,0,1,1.6-.549,2.322,2.322,0,0,1,1.605.549,1.81,1.81,0,0,1,.616,1.416,1.861,1.861,0,0,1-.616,1.44A2.291,2.291,0,0,1,64-14.478ZM65.906,0H62.048V-12.5h3.857Zm10.8-.146a5.7,5.7,0,0,1-2.576.452q-4.077,0-4.077-4.236V-9.656H68.03V-12.5h2.026v-2.7L73.9-16.3v3.8h2.808v2.844H73.9V-4.6q0,1.953,1.55,1.953A2.614,2.614,0,0,0,76.709-3ZM82.739,0H78.882V-18.506h3.857ZM97.217-5.151H89.063q.2,2.722,3.43,2.722a6.7,6.7,0,0,0,3.625-.977V-.623a9.524,9.524,0,0,1-4.5.928,6.341,6.341,0,0,1-4.7-1.678,6.341,6.341,0,0,1-1.672-4.681,6.689,6.689,0,0,1,1.807-4.932,6.019,6.019,0,0,1,4.443-1.819,5.463,5.463,0,0,1,4.23,1.624,6.252,6.252,0,0,1,1.5,4.407ZM93.64-7.52q0-2.686-2.173-2.686a2.075,2.075,0,0,0-1.605.769,3.49,3.49,0,0,0-.824,1.917Z" transform="translate(61.34 106)"/>
        <path id="Path_3" data-name="Path 3" d="M3.345.305A2.25,2.25,0,0,1,1.758-.281a1.884,1.884,0,0,1-.635-1.44,1.814,1.814,0,0,1,.653-1.44,2.411,2.411,0,0,1,1.63-.562,2.321,2.321,0,0,1,1.617.568,1.849,1.849,0,0,1,.629,1.434A1.86,1.86,0,0,1,5.011-.262,2.42,2.42,0,0,1,3.345.305ZM12.256,0H8.4V-18.506h3.857Zm5.2-14.478a2.253,2.253,0,0,1-1.6-.58,1.868,1.868,0,0,1-.623-1.422,1.8,1.8,0,0,1,.623-1.416,2.328,2.328,0,0,1,1.6-.549,2.322,2.322,0,0,1,1.605.549,1.81,1.81,0,0,1,.616,1.416,1.861,1.861,0,0,1-.616,1.44A2.291,2.291,0,0,1,17.456-14.478ZM19.36,0H15.5V-12.5H19.36ZM21.79-.33V-3.455a8.213,8.213,0,0,0,1.9.854,6.294,6.294,0,0,0,1.788.281A3.836,3.836,0,0,0,27.094-2.6a.907.907,0,0,0,.592-.854.791.791,0,0,0-.269-.61,2.5,2.5,0,0,0-.69-.427,7.827,7.827,0,0,0-.922-.33q-.5-.146-.964-.33a9.24,9.24,0,0,1-1.312-.6,3.793,3.793,0,0,1-.952-.751,2.951,2.951,0,0,1-.586-.989,3.946,3.946,0,0,1-.2-1.331,3.425,3.425,0,0,1,.458-1.807,3.739,3.739,0,0,1,1.221-1.239,5.578,5.578,0,0,1,1.746-.708,9.1,9.1,0,0,1,2.045-.226,11.345,11.345,0,0,1,1.685.128,12.573,12.573,0,0,1,1.685.372v2.979a6.087,6.087,0,0,0-1.569-.641,6.617,6.617,0,0,0-1.642-.214,3.638,3.638,0,0,0-.714.067,2.352,2.352,0,0,0-.592.2,1.087,1.087,0,0,0-.4.33.759.759,0,0,0-.146.458.846.846,0,0,0,.22.586,1.908,1.908,0,0,0,.574.421,5.664,5.664,0,0,0,.787.317q.433.14.861.287a11.189,11.189,0,0,1,1.392.586,4.45,4.45,0,0,1,1.068.745,2.924,2.924,0,0,1,.684,1,3.558,3.558,0,0,1,.238,1.367,3.566,3.566,0,0,1-.482,1.9A3.86,3.86,0,0,1,29.62-.641a5.813,5.813,0,0,1-1.843.72A10.219,10.219,0,0,1,25.61.305,11.17,11.17,0,0,1,21.79-.33Zm19.373.183a5.7,5.7,0,0,1-2.576.452q-4.077,0-4.077-4.236V-9.656H32.483V-12.5h2.026v-2.7l3.845-1.1v3.8h2.808v2.844H38.354V-4.6q0,1.953,1.55,1.953A2.614,2.614,0,0,0,41.162-3Zm7.849-5.176H42.334v-2.7h6.677ZM61.792-.452A7.627,7.627,0,0,1,58.02.305,6.379,6.379,0,0,1,53.357-1.44a6.029,6.029,0,0,1-1.782-4.5,6.641,6.641,0,0,1,1.91-5.023,7.06,7.06,0,0,1,5.109-1.837,6.555,6.555,0,0,1,3.2.586v3.271a4.4,4.4,0,0,0-2.7-.9,3.555,3.555,0,0,0-2.631.97,3.621,3.621,0,0,0-.97,2.679,3.562,3.562,0,0,0,.928,2.606,3.41,3.41,0,0,0,2.551.946,5.091,5.091,0,0,0,2.82-.9Zm8.484.757a6.72,6.72,0,0,1-4.913-1.752A6.351,6.351,0,0,1,63.574-6.2a6.351,6.351,0,0,1,1.855-4.852,7.011,7.011,0,0,1,5.017-1.752,6.638,6.638,0,0,1,4.883,1.752A6.227,6.227,0,0,1,77.1-6.421,6.61,6.61,0,0,1,75.275-1.5,6.794,6.794,0,0,1,70.276.305Zm.1-10.156a2.573,2.573,0,0,0-2.124.94,4.145,4.145,0,0,0-.757,2.661q0,3.6,2.905,3.6,2.771,0,2.771-3.7Q73.169-9.851,70.374-9.851ZM91.675,0H87.83V-6.946q0-2.905-2.075-2.905a2.059,2.059,0,0,0-1.648.769,2.93,2.93,0,0,0-.647,1.953V0H79.6V-12.5h3.857v1.978h.049a4.42,4.42,0,0,1,4.016-2.283q4.15,0,4.15,5.151Zm10.608-.146a5.7,5.7,0,0,1-2.576.452q-4.077,0-4.077-4.236V-9.656H93.6V-12.5H95.63v-2.7l3.845-1.1v3.8h2.808v2.844H99.475V-4.6q0,1.953,1.55,1.953A2.614,2.614,0,0,0,102.283-3Zm13.306-5h-8.154q.2,2.722,3.43,2.722a6.7,6.7,0,0,0,3.625-.977V-.623a9.524,9.524,0,0,1-4.5.928,6.341,6.341,0,0,1-4.7-1.678,6.341,6.341,0,0,1-1.672-4.681,6.689,6.689,0,0,1,1.807-4.932,6.019,6.019,0,0,1,4.443-1.819,5.463,5.463,0,0,1,4.23,1.624,6.252,6.252,0,0,1,1.5,4.407ZM112.012-7.52q0-2.686-2.173-2.686a2.075,2.075,0,0,0-1.605.769,3.49,3.49,0,0,0-.824,1.917ZM129.956,0h-3.845V-6.946q0-2.905-2.075-2.905a2.059,2.059,0,0,0-1.648.769,2.93,2.93,0,0,0-.647,1.953V0h-3.857V-12.5h3.857v1.978h.049a4.42,4.42,0,0,1,4.016-2.283q4.15,0,4.15,5.151Zm10.608-.146a5.7,5.7,0,0,1-2.576.452q-4.077,0-4.077-4.236V-9.656h-2.026V-12.5h2.026v-2.7l3.845-1.1v3.8h2.808v2.844h-2.808V-4.6q0,1.953,1.55,1.953A2.614,2.614,0,0,0,140.564-3Z" transform="translate(49.34 552)"/>
      </g>
      <g id="Group_5" data-name="Group 5" transform="translate(1285.59 382.395)">
        <rect id="Rectangle_6-3" data-name="Rectangle 6" width="238" height="533" rx="25" transform="translate(-0.103 -0.395)" fill="#fff"/>
        <rect id="Rectangle_8-3" data-name="Rectangle 8" width="137" height="65" rx="25" transform="translate(50.897 50.605)" fill="#f6f6f6"/>
        <rect id="Rectangle_9-3" data-name="Rectangle 9" width="137" height="66" rx="25" transform="translate(50.897 158.605)" fill="#f6f6f6"/>
        <rect id="Rectangle_10-3" data-name="Rectangle 10" width="137" height="65" rx="25" transform="translate(50.897 267.605)" fill="#f6f6f6"/>
      </g>
    </g>
  </g>
</svg>
