<svg xmlns="http://www.w3.org/2000/svg" width="314" height="333" viewBox="0 0 314 333">
  <g id="active-state-placeholder" transform="translate(-1326.333 -380)">
    <rect id="Rectangle_26" data-name="Rectangle 26" width="235" height="333" rx="32" transform="translate(1326.333 380)" fill="#f5f5f5"/>
    <rect id="Rectangle_14" data-name="Rectangle 14" width="211" height="80" rx="32" transform="translate(1340.333 463)" fill="#fff"/>
    <rect id="Rectangle_16" data-name="Rectangle 16" width="159" height="7" rx="3.5" transform="translate(1366.333 494)" fill="#bebebe"/>
    <path id="Path_7" data-name="Path 7" d="M8.35,0H6.287l-.6-1.869H2.7L2.109,0H.059L3.117-8.4H5.361ZM5.256-3.322l-.9-2.824A3.68,3.68,0,0,1,4.213-6.9H4.166a3.2,3.2,0,0,1-.146.732L3.105-3.322ZM13.764-.217a3.661,3.661,0,0,1-1.811.363A3.062,3.062,0,0,1,9.715-.691a2.894,2.894,0,0,1-.855-2.162,3.188,3.188,0,0,1,.917-2.411,3.389,3.389,0,0,1,2.452-.882,3.146,3.146,0,0,1,1.535.281v1.57a2.111,2.111,0,0,0-1.295-.434,1.706,1.706,0,0,0-1.263.466,1.738,1.738,0,0,0-.466,1.286,1.71,1.71,0,0,0,.445,1.251,1.637,1.637,0,0,0,1.225.454,2.444,2.444,0,0,0,1.354-.434ZM18.6-.07a2.737,2.737,0,0,1-1.236.217q-1.957,0-1.957-2.033V-4.635h-.973V-6h.973V-7.295l1.846-.527V-6H18.6v1.365H17.256v2.426q0,.938.744.938a1.255,1.255,0,0,0,.6-.17Zm1.98-6.879a1.081,1.081,0,0,1-.768-.278.9.9,0,0,1-.3-.683.865.865,0,0,1,.3-.68,1.117,1.117,0,0,1,.768-.264,1.115,1.115,0,0,1,.771.264.869.869,0,0,1,.3.68.893.893,0,0,1-.3.691A1.1,1.1,0,0,1,20.584-6.949ZM21.5,0H19.646V-6H21.5ZM28.77-6,26.537,0H24.428L22.3-6h1.98l1.043,3.7a5.4,5.4,0,0,1,.205,1.066h.023a6.052,6.052,0,0,1,.217-1.031L26.836-6Zm6.064,3.527H30.92q.094,1.307,1.646,1.307a3.214,3.214,0,0,0,1.74-.469V-.3a4.572,4.572,0,0,1-2.162.445,3.044,3.044,0,0,1-2.256-.806,3.044,3.044,0,0,1-.8-2.247,3.211,3.211,0,0,1,.867-2.367,2.889,2.889,0,0,1,2.133-.873,2.622,2.622,0,0,1,2.03.779,3,3,0,0,1,.718,2.115ZM33.117-3.609q0-1.289-1.043-1.289a1,1,0,0,0-.771.369,1.675,1.675,0,0,0-.4.92ZM38.854-.158v-1.5a3.942,3.942,0,0,0,.911.41,3.021,3.021,0,0,0,.858.135,1.841,1.841,0,0,0,.776-.135.435.435,0,0,0,.284-.41.379.379,0,0,0-.129-.293,1.2,1.2,0,0,0-.331-.205,3.757,3.757,0,0,0-.442-.158q-.24-.07-.463-.158a4.435,4.435,0,0,1-.63-.29,1.821,1.821,0,0,1-.457-.36A1.416,1.416,0,0,1,38.95-3.6a1.894,1.894,0,0,1-.1-.639,1.644,1.644,0,0,1,.22-.867,1.8,1.8,0,0,1,.586-.595,2.677,2.677,0,0,1,.838-.34,4.369,4.369,0,0,1,.981-.108,5.446,5.446,0,0,1,.809.062,6.035,6.035,0,0,1,.809.179v1.43a2.922,2.922,0,0,0-.753-.308,3.176,3.176,0,0,0-.788-.1,1.746,1.746,0,0,0-.343.032,1.129,1.129,0,0,0-.284.094.522.522,0,0,0-.193.158.364.364,0,0,0-.07.22.406.406,0,0,0,.105.281.916.916,0,0,0,.275.2,2.719,2.719,0,0,0,.378.152q.208.067.413.138a5.371,5.371,0,0,1,.668.281,2.136,2.136,0,0,1,.513.357,1.4,1.4,0,0,1,.328.48,1.708,1.708,0,0,1,.114.656,1.712,1.712,0,0,1-.231.911,1.853,1.853,0,0,1-.615.615,2.79,2.79,0,0,1-.885.346,4.9,4.9,0,0,1-1.04.108A5.362,5.362,0,0,1,38.854-.158Zm9.3.088a2.737,2.737,0,0,1-1.236.217q-1.957,0-1.957-2.033V-4.635h-.973V-6h.973V-7.295L46.8-7.822V-6h1.348v1.365H46.8v2.426q0,.938.744.938a1.255,1.255,0,0,0,.6-.17ZM54.188,0H52.436V-.861h-.023A1.955,1.955,0,0,1,50.625.146a1.869,1.869,0,0,1-1.374-.5,1.774,1.774,0,0,1-.5-1.321q0-1.746,2.068-2.016L52.447-3.9q0-.984-1.066-.984a3.64,3.64,0,0,0-2.039.639V-5.643A4.587,4.587,0,0,1,50.4-5.994a5.56,5.56,0,0,1,1.222-.152,2.266,2.266,0,0,1,2.566,2.561Zm-1.74-2.437v-.4l-1.09.141q-.9.117-.9.814a.673.673,0,0,0,.22.519.844.844,0,0,0,.595.2,1.1,1.1,0,0,0,.85-.36A1.3,1.3,0,0,0,52.447-2.437ZM59.279-.07a2.737,2.737,0,0,1-1.236.217q-1.957,0-1.957-2.033V-4.635h-.973V-6h.973V-7.295l1.846-.527V-6h1.348v1.365H57.932v2.426q0,.938.744.938a1.255,1.255,0,0,0,.6-.17Zm6.387-2.4H61.752q.094,1.307,1.646,1.307a3.214,3.214,0,0,0,1.74-.469V-.3a4.572,4.572,0,0,1-2.162.445,3.044,3.044,0,0,1-2.256-.806,3.044,3.044,0,0,1-.8-2.247,3.211,3.211,0,0,1,.867-2.367,2.889,2.889,0,0,1,2.133-.873,2.622,2.622,0,0,1,2.03.779,3,3,0,0,1,.718,2.115ZM63.949-3.609q0-1.289-1.043-1.289a1,1,0,0,0-.771.369,1.675,1.675,0,0,0-.4.92Z" transform="translate(1360.333 451)" fill="#646464"/>
    <rect id="Rectangle_18" data-name="Rectangle 18" width="159" height="7" rx="3.5" transform="translate(1366.333 506)" fill="#bebebe"/>
    <rect id="Rectangle_19" data-name="Rectangle 19" width="79" height="7" rx="3.5" transform="translate(1366.333 478)" fill="#bebebe"/>
    <rect id="Rectangle_20" data-name="Rectangle 20" width="159" height="7" rx="3.5" transform="translate(1366.333 518)" fill="#bebebe"/>
    <g id="Group_7" data-name="Group 7" transform="translate(1429.768 564.055)">
      <path id="Path_8" data-name="Path 8" d="M2.854-2.895V0H.961V-8.4H3.926Q7.1-8.4,7.1-5.725A2.569,2.569,0,0,1,6.19-3.677a3.61,3.61,0,0,1-2.435.782Zm0-4.055V-4.33H3.6q1.512,0,1.512-1.324,0-1.295-1.512-1.295ZM10,0H8.15V-8.883H10Zm6.551,0H14.8V-.861h-.023A1.955,1.955,0,0,1,12.99.146a1.869,1.869,0,0,1-1.374-.5,1.774,1.774,0,0,1-.5-1.321q0-1.746,2.068-2.016L14.813-3.9q0-.984-1.066-.984a3.64,3.64,0,0,0-2.039.639V-5.643a4.587,4.587,0,0,1,1.058-.352,5.56,5.56,0,0,1,1.222-.152,2.266,2.266,0,0,1,2.566,2.561Zm-1.74-2.437v-.4l-1.09.141q-.9.117-.9.814a.673.673,0,0,0,.22.519.844.844,0,0,0,.595.2,1.1,1.1,0,0,0,.85-.36A1.3,1.3,0,0,0,14.813-2.437ZM22.564-.217a3.661,3.661,0,0,1-1.811.363,3.062,3.062,0,0,1-2.238-.838,2.894,2.894,0,0,1-.855-2.162,3.188,3.188,0,0,1,.917-2.411,3.389,3.389,0,0,1,2.452-.882,3.146,3.146,0,0,1,1.535.281v1.57a2.111,2.111,0,0,0-1.295-.434,1.706,1.706,0,0,0-1.263.466,1.738,1.738,0,0,0-.466,1.286,1.71,1.71,0,0,0,.445,1.251,1.637,1.637,0,0,0,1.225.454,2.444,2.444,0,0,0,1.354-.434Zm6.6-2.256H25.254q.094,1.307,1.646,1.307a3.214,3.214,0,0,0,1.74-.469V-.3a4.572,4.572,0,0,1-2.162.445,3.044,3.044,0,0,1-2.256-.806,3.044,3.044,0,0,1-.8-2.247,3.211,3.211,0,0,1,.867-2.367,2.889,2.889,0,0,1,2.133-.873,2.622,2.622,0,0,1,2.03.779,3,3,0,0,1,.718,2.115ZM27.451-3.609q0-1.289-1.043-1.289a1,1,0,0,0-.771.369,1.675,1.675,0,0,0-.4.92ZM36.029,0H34.184V-3.41q0-1.318-.961-1.318a.984.984,0,0,0-.8.369,1.424,1.424,0,0,0-.3.938V0H30.27V-8.883h1.852v3.773h.023A2.1,2.1,0,0,1,33.99-6.146q2.039,0,2.039,2.461Zm4.324.146A3.225,3.225,0,0,1,38-.694a3.048,3.048,0,0,1-.858-2.282,3.048,3.048,0,0,1,.891-2.329,3.365,3.365,0,0,1,2.408-.841,3.186,3.186,0,0,1,2.344.841,2.989,2.989,0,0,1,.85,2.224,3.173,3.173,0,0,1-.876,2.361A3.261,3.261,0,0,1,40.354.146ZM40.4-4.729a1.235,1.235,0,0,0-1.02.451A1.99,1.99,0,0,0,39.018-3q0,1.729,1.395,1.729,1.33,0,1.33-1.775Q41.742-4.729,40.4-4.729ZM46.682,0H44.83V-8.883h1.852Zm7.43,0H52.26V-.826h-.023a2.076,2.076,0,0,1-1.857.973,2.275,2.275,0,0,1-1.811-.794,3.287,3.287,0,0,1-.686-2.218,3.577,3.577,0,0,1,.756-2.385,2.465,2.465,0,0,1,1.98-.9,1.685,1.685,0,0,1,1.617.832h.023V-8.883h1.852ZM52.295-2.918v-.451a1.42,1.42,0,0,0-.34-.973,1.122,1.122,0,0,0-.885-.387,1.115,1.115,0,0,0-.961.483,2.245,2.245,0,0,0-.346,1.327A1.942,1.942,0,0,0,50.1-1.7a1.109,1.109,0,0,0,.926.428,1.114,1.114,0,0,0,.917-.451A1.881,1.881,0,0,0,52.295-2.918Zm8.766.445H57.146q.094,1.307,1.646,1.307a3.214,3.214,0,0,0,1.74-.469V-.3a4.572,4.572,0,0,1-2.162.445,3.044,3.044,0,0,1-2.256-.806,3.044,3.044,0,0,1-.8-2.247,3.211,3.211,0,0,1,.867-2.367,2.889,2.889,0,0,1,2.133-.873,2.622,2.622,0,0,1,2.03.779,3,3,0,0,1,.718,2.115ZM59.344-3.609Q59.344-4.9,58.3-4.9a1,1,0,0,0-.771.369,1.675,1.675,0,0,0-.4.92Zm6.732-.721a1.606,1.606,0,0,0-.779-.182,1.123,1.123,0,0,0-.943.442,1.93,1.93,0,0,0-.34,1.2V0H62.162V-6h1.852v1.113h.023a1.6,1.6,0,0,1,1.582-1.219,1.192,1.192,0,0,1,.457.07Z" transform="translate(23.565 10.945)" fill="#464646"/>
      <rect id="Rectangle_21" data-name="Rectangle 21" width="211" height="80" rx="32" transform="translate(-0.435 20.945)" fill="#4e4e4e"/>
      <rect id="Rectangle_22" data-name="Rectangle 22" width="159" height="7" rx="3.5" transform="translate(25.565 52.945)" fill="#e2e2e2"/>
      <rect id="Rectangle_23" data-name="Rectangle 23" width="159" height="7" rx="3.5" transform="translate(25.565 63.945)" fill="#e2e2e2"/>
      <rect id="Rectangle_24" data-name="Rectangle 24" width="79" height="7" rx="3.5" transform="translate(27.565 36.945)" fill="#e2e2e2"/>
      <rect id="Rectangle_25" data-name="Rectangle 25" width="159" height="7" rx="3.5" transform="translate(25.565 75.945)" fill="#e2e2e2"/>
    </g>
  </g>
</svg>
