<svg xmlns="http://www.w3.org/2000/svg" width="842" height="352" viewBox="0 0 842 352">
  <g id="direction" transform="translate(-715 -440)">
    <g id="Group_22" data-name="Group 22" transform="translate(-530 -158)">
      <rect id="Rectangle_28" data-name="Rectangle 28" width="580" height="212" rx="32" transform="translate(1245 668)" fill="#f5f5f5"/>
      <g id="Group_18" data-name="Group 18">
        <g id="Group_8" data-name="Group 8" transform="translate(48.667 -37)">
          <rect id="Rectangle_48" data-name="Rectangle 48" width="162" height="61" rx="30.5" transform="translate(1229.333 739)" fill="#fff"/>
          <rect id="Rectangle_49" data-name="Rectangle 49" width="122" height="5" rx="2.5" transform="translate(1249.333 763)" fill="#bebebe"/>
          <rect id="Rectangle_50" data-name="Rectangle 50" width="122" height="5" rx="2.5" transform="translate(1249.333 772)" fill="#bebebe"/>
          <rect id="Rectangle_51" data-name="Rectangle 51" width="60" height="6" rx="3" transform="translate(1249.333 750)" fill="#bebebe"/>
          <rect id="Rectangle_52" data-name="Rectangle 52" width="122" height="6" rx="3" transform="translate(1249.333 781)" fill="#bebebe"/>
        </g>
        <g id="Group_16" data-name="Group 16" transform="translate(228.667 -37)">
          <rect id="Rectangle_48-2" data-name="Rectangle 48" width="162" height="61" rx="30.5" transform="translate(1229.333 739)" fill="#fff"/>
          <rect id="Rectangle_49-2" data-name="Rectangle 49" width="122" height="5" rx="2.5" transform="translate(1249.333 763)" fill="#bebebe"/>
          <rect id="Rectangle_50-2" data-name="Rectangle 50" width="122" height="5" rx="2.5" transform="translate(1249.333 772)" fill="#bebebe"/>
          <rect id="Rectangle_51-2" data-name="Rectangle 51" width="60" height="6" rx="3" transform="translate(1249.333 750)" fill="#bebebe"/>
          <rect id="Rectangle_52-2" data-name="Rectangle 52" width="122" height="6" rx="3" transform="translate(1249.333 781)" fill="#bebebe"/>
        </g>
        <g id="Group_17" data-name="Group 17" transform="translate(408.667 -37)">
          <rect id="Rectangle_48-3" data-name="Rectangle 48" width="162" height="61" rx="30.5" transform="translate(1229.333 739)" fill="#fff"/>
          <rect id="Rectangle_49-3" data-name="Rectangle 49" width="122" height="5" rx="2.5" transform="translate(1249.333 763)" fill="#bebebe"/>
          <rect id="Rectangle_50-3" data-name="Rectangle 50" width="122" height="5" rx="2.5" transform="translate(1249.333 772)" fill="#bebebe"/>
          <rect id="Rectangle_51-3" data-name="Rectangle 51" width="60" height="6" rx="3" transform="translate(1249.333 750)" fill="#bebebe"/>
          <rect id="Rectangle_52-3" data-name="Rectangle 52" width="122" height="6" rx="3" transform="translate(1249.333 781)" fill="#bebebe"/>
        </g>
      </g>
      <g id="Group_19" data-name="Group 19" transform="translate(0 90)">
        <g id="Group_8-2" data-name="Group 8" transform="translate(48.667 -37)">
          <rect id="Rectangle_48-4" data-name="Rectangle 48" width="162" height="61" rx="30.5" transform="translate(1229.333 739)" fill="#fff"/>
          <rect id="Rectangle_49-4" data-name="Rectangle 49" width="122" height="5" rx="2.5" transform="translate(1249.333 763)" fill="#bebebe"/>
          <rect id="Rectangle_50-4" data-name="Rectangle 50" width="122" height="5" rx="2.5" transform="translate(1249.333 772)" fill="#bebebe"/>
          <rect id="Rectangle_51-4" data-name="Rectangle 51" width="60" height="6" rx="3" transform="translate(1249.333 750)" fill="#bebebe"/>
          <rect id="Rectangle_52-4" data-name="Rectangle 52" width="122" height="6" rx="3" transform="translate(1249.333 781)" fill="#bebebe"/>
        </g>
        <g id="Group_16-2" data-name="Group 16" transform="translate(228.667 -37)">
          <rect id="Rectangle_48-5" data-name="Rectangle 48" width="162" height="61" rx="30.5" transform="translate(1229.333 739)" fill="#fff"/>
          <rect id="Rectangle_49-5" data-name="Rectangle 49" width="122" height="5" rx="2.5" transform="translate(1249.333 763)" fill="#bebebe"/>
          <rect id="Rectangle_50-5" data-name="Rectangle 50" width="122" height="5" rx="2.5" transform="translate(1249.333 772)" fill="#bebebe"/>
          <rect id="Rectangle_51-5" data-name="Rectangle 51" width="60" height="6" rx="3" transform="translate(1249.333 750)" fill="#bebebe"/>
          <rect id="Rectangle_52-5" data-name="Rectangle 52" width="122" height="6" rx="3" transform="translate(1249.333 781)" fill="#bebebe"/>
        </g>
        <g id="Group_17-2" data-name="Group 17" transform="translate(408.667 -37)">
          <rect id="Rectangle_48-6" data-name="Rectangle 48" width="162" height="61" rx="30.5" transform="translate(1229.333 739)" fill="#fff"/>
          <rect id="Rectangle_49-6" data-name="Rectangle 49" width="122" height="5" rx="2.5" transform="translate(1249.333 763)" fill="#bebebe"/>
          <rect id="Rectangle_50-6" data-name="Rectangle 50" width="122" height="5" rx="2.5" transform="translate(1249.333 772)" fill="#bebebe"/>
          <rect id="Rectangle_51-6" data-name="Rectangle 51" width="60" height="6" rx="3" transform="translate(1249.333 750)" fill="#bebebe"/>
          <rect id="Rectangle_52-6" data-name="Rectangle 52" width="122" height="6" rx="3" transform="translate(1249.333 781)" fill="#bebebe"/>
        </g>
      </g>
    </g>
    <g id="Group_23" data-name="Group 23" transform="translate(620 -260)">
      <g id="direction-2" data-name="direction" transform="translate(-530 32)">
        <rect id="Rectangle_28-2" data-name="Rectangle 28" width="222" height="352" rx="32" transform="translate(1245 668)" fill="#f5f5f5"/>
        <g id="Group_8-3" data-name="Group 8" transform="translate(48.667 -40)">
          <rect id="Rectangle_48-7" data-name="Rectangle 48" width="162" height="61" rx="30.5" transform="translate(1229.333 739)" fill="#fff"/>
          <rect id="Rectangle_49-7" data-name="Rectangle 49" width="122" height="5" rx="2.5" transform="translate(1249.333 763)" fill="#bebebe"/>
          <rect id="Rectangle_50-7" data-name="Rectangle 50" width="122" height="5" rx="2.5" transform="translate(1249.333 772)" fill="#bebebe"/>
          <rect id="Rectangle_51-7" data-name="Rectangle 51" width="60" height="6" rx="3" transform="translate(1249.333 750)" fill="#bebebe"/>
          <rect id="Rectangle_52-7" data-name="Rectangle 52" width="122" height="6" rx="3" transform="translate(1249.333 781)" fill="#bebebe"/>
        </g>
        <g id="Group_20" data-name="Group 20" transform="translate(48.667 41)">
          <rect id="Rectangle_48-8" data-name="Rectangle 48" width="162" height="61" rx="30.5" transform="translate(1229.333 739)" fill="#fff"/>
          <rect id="Rectangle_49-8" data-name="Rectangle 49" width="122" height="5" rx="2.5" transform="translate(1249.333 763)" fill="#bebebe"/>
          <rect id="Rectangle_50-8" data-name="Rectangle 50" width="122" height="5" rx="2.5" transform="translate(1249.333 772)" fill="#bebebe"/>
          <rect id="Rectangle_51-8" data-name="Rectangle 51" width="60" height="6" rx="3" transform="translate(1249.333 750)" fill="#bebebe"/>
          <rect id="Rectangle_52-8" data-name="Rectangle 52" width="122" height="6" rx="3" transform="translate(1249.333 781)" fill="#bebebe"/>
        </g>
        <g id="Group_21" data-name="Group 21" transform="translate(48.667 122)">
          <rect id="Rectangle_48-9" data-name="Rectangle 48" width="162" height="61" rx="30.5" transform="translate(1229.333 739)" fill="#fff"/>
          <rect id="Rectangle_49-9" data-name="Rectangle 49" width="122" height="5" rx="2.5" transform="translate(1249.333 763)" fill="#bebebe"/>
          <rect id="Rectangle_50-9" data-name="Rectangle 50" width="122" height="5" rx="2.5" transform="translate(1249.333 772)" fill="#bebebe"/>
          <rect id="Rectangle_51-9" data-name="Rectangle 51" width="60" height="6" rx="3" transform="translate(1249.333 750)" fill="#bebebe"/>
          <rect id="Rectangle_52-9" data-name="Rectangle 52" width="122" height="6" rx="3" transform="translate(1249.333 781)" fill="#bebebe"/>
        </g>
        <g id="Group_22-2" data-name="Group 22" transform="translate(48.667 203)">
          <rect id="Rectangle_48-10" data-name="Rectangle 48" width="162" height="61" rx="30.5" transform="translate(1229.333 739)" fill="#fff"/>
          <rect id="Rectangle_49-10" data-name="Rectangle 49" width="122" height="5" rx="2.5" transform="translate(1249.333 763)" fill="#bebebe"/>
          <rect id="Rectangle_50-10" data-name="Rectangle 50" width="122" height="5" rx="2.5" transform="translate(1249.333 772)" fill="#bebebe"/>
          <rect id="Rectangle_51-10" data-name="Rectangle 51" width="60" height="6" rx="3" transform="translate(1249.333 750)" fill="#bebebe"/>
          <rect id="Rectangle_52-10" data-name="Rectangle 52" width="122" height="6" rx="3" transform="translate(1249.333 781)" fill="#bebebe"/>
        </g>
      </g>
    </g>
  </g>
</svg>
