<svg xmlns="http://www.w3.org/2000/svg" width="505" height="70" viewBox="0 0 505 70">
  <g id="Group_16" data-name="Group 16" transform="translate(-1383 -848)">
    <rect id="Rectangle_53" data-name="Rectangle 53" width="505" height="70" rx="8" transform="translate(1383 848)" fill="#f5f5f5"/>
    <g id="Group_11" data-name="Group 11">
      <g id="Group_10" data-name="Group 10" transform="translate(21 -3)">
        <rect id="Rectangle_54" data-name="Rectangle 54" width="98" height="22" rx="11" transform="translate(1426 875)" fill="#86ced6"/>
        <path id="Path_10" data-name="Path 10" d="M3.335.134A2.957,2.957,0,0,1,1.174-.636,2.794,2.794,0,0,1,.387-2.729,2.794,2.794,0,0,1,1.2-4.864a3.085,3.085,0,0,1,2.208-.771,2.921,2.921,0,0,1,2.148.771,2.74,2.74,0,0,1,.779,2.038,2.908,2.908,0,0,1-.8,2.165A2.989,2.989,0,0,1,3.335.134Zm.043-4.469a1.132,1.132,0,0,0-.935.414A1.824,1.824,0,0,0,2.111-2.75q0,1.584,1.278,1.584,1.219,0,1.219-1.627Q4.608-4.334,3.378-4.334ZM12.751,0H11.059V-3.056q0-1.278-.913-1.278A.906.906,0,0,0,9.421-4a1.289,1.289,0,0,0-.285.859V0h-1.7V-5.5h1.7v.87h.021a1.945,1.945,0,0,1,1.767-1q1.826,0,1.826,2.267Zm7.031-.274a5.079,5.079,0,0,1-2.2.408A3.712,3.712,0,0,1,14.792-.908a3.809,3.809,0,0,1-1.015-2.777,4.069,4.069,0,0,1,1.141-3A3.992,3.992,0,0,1,17.88-7.831a5.54,5.54,0,0,1,1.9.285v1.67a3.369,3.369,0,0,0-1.762-.462,2.337,2.337,0,0,0-1.751.682A2.531,2.531,0,0,0,15.6-3.808a2.483,2.483,0,0,0,.628,1.781,2.22,2.22,0,0,0,1.692.663,3.609,3.609,0,0,0,1.858-.494ZM25.534,0H23.928V-.79h-.021a1.792,1.792,0,0,1-1.638.924,1.714,1.714,0,0,1-1.26-.454,1.626,1.626,0,0,1-.459-1.211q0-1.6,1.9-1.848l1.493-.2q0-.9-.978-.9a3.337,3.337,0,0,0-1.869.585V-5.172a4.205,4.205,0,0,1,.969-.322,5.1,5.1,0,0,1,1.12-.14,2.077,2.077,0,0,1,2.353,2.347Zm-1.6-2.234V-2.6l-1,.129q-.827.107-.827.747a.617.617,0,0,0,.2.475.774.774,0,0,0,.545.185,1,1,0,0,0,.779-.33A1.193,1.193,0,0,0,23.939-2.234Zm6.526-1.735a1.472,1.472,0,0,0-.714-.167,1.029,1.029,0,0,0-.865.406,1.769,1.769,0,0,0-.312,1.1V0h-1.7V-5.5h1.7v1.021H28.6A1.468,1.468,0,0,1,30.046-5.6a1.093,1.093,0,0,1,.419.064ZM36.593,0H34.9V-.757h-.021a1.9,1.9,0,0,1-1.7.892,2.085,2.085,0,0,1-1.66-.728,3.013,3.013,0,0,1-.628-2.033,3.279,3.279,0,0,1,.693-2.186,2.26,2.26,0,0,1,1.815-.822,1.544,1.544,0,0,1,1.482.763H34.9V-8.143h1.7ZM34.928-2.675v-.414a1.3,1.3,0,0,0-.312-.892,1.029,1.029,0,0,0-.811-.354,1.022,1.022,0,0,0-.881.443,2.058,2.058,0,0,0-.317,1.217,1.781,1.781,0,0,0,.306,1.117,1.016,1.016,0,0,0,.849.392,1.021,1.021,0,0,0,.841-.414A1.724,1.724,0,0,0,34.928-2.675ZM46.965,0H45.251V-4.608q0-.747.064-1.649h-.043a8.114,8.114,0,0,1-.242,1.021L43.227,0H41.809L39.972-5.183a10.087,10.087,0,0,1-.242-1.074h-.048q.07,1.139.07,2V0H38.188V-7.7h2.541L42.3-3.137a6.428,6.428,0,0,1,.274,1.1h.032a11.087,11.087,0,0,1,.306-1.112L44.489-7.7h2.476ZM51.17.134a2.957,2.957,0,0,1-2.162-.771,2.794,2.794,0,0,1-.787-2.092,2.794,2.794,0,0,1,.816-2.135,3.085,3.085,0,0,1,2.208-.771,2.921,2.921,0,0,1,2.148.771,2.74,2.74,0,0,1,.779,2.038,2.908,2.908,0,0,1-.8,2.165A2.989,2.989,0,0,1,51.17.134Zm.043-4.469a1.132,1.132,0,0,0-.935.414,1.824,1.824,0,0,0-.333,1.171q0,1.584,1.278,1.584,1.219,0,1.219-1.627Q52.443-4.334,51.213-4.334Zm9.3-1.166L58.464,0H56.531l-1.95-5.5H56.4l.956,3.389a4.95,4.95,0,0,1,.188.978h.021a5.548,5.548,0,0,1,.2-.945L58.738-5.5ZM66.07-2.267H62.482q.086,1.2,1.509,1.2a2.947,2.947,0,0,0,1.6-.43V-.274A4.191,4.191,0,0,1,63.6.134,2.79,2.79,0,0,1,61.537-.6a2.79,2.79,0,0,1-.736-2.06,2.943,2.943,0,0,1,.795-2.17,2.648,2.648,0,0,1,1.955-.8,2.4,2.4,0,0,1,1.861.714,2.751,2.751,0,0,1,.658,1.939ZM64.5-3.309q0-1.182-.956-1.182a.913.913,0,0,0-.706.338,1.536,1.536,0,0,0-.363.843Z" transform="translate(1442 890)" fill="#fefefe"/>
      </g>
      <path id="Path_9" data-name="Path 9" d="M5.5,0H.881V-7.7H5.323V-6.29H2.616v1.713H5.135v1.407H2.616v1.762H5.5Zm6.306-5.5L9.759,0H7.826L5.876-5.5H7.691l.956,3.389a4.95,4.95,0,0,1,.188.978h.021a5.548,5.548,0,0,1,.2-.945L10.033-5.5Zm5.559,3.233H13.777q.086,1.2,1.509,1.2a2.947,2.947,0,0,0,1.6-.43V-.274A4.191,4.191,0,0,1,14.9.134,2.79,2.79,0,0,1,12.832-.6a2.79,2.79,0,0,1-.736-2.06,2.943,2.943,0,0,1,.795-2.17,2.648,2.648,0,0,1,1.955-.8,2.4,2.4,0,0,1,1.861.714,2.751,2.751,0,0,1,.658,1.939ZM15.791-3.309q0-1.182-.956-1.182a.913.913,0,0,0-.706.338,1.536,1.536,0,0,0-.363.843ZM23.687,0H21.995V-3.056q0-1.278-.913-1.278A.906.906,0,0,0,20.356-4a1.289,1.289,0,0,0-.285.859V0h-1.7V-5.5h1.7v.87h.021a1.945,1.945,0,0,1,1.767-1q1.826,0,1.826,2.267Zm4.667-.064a2.509,2.509,0,0,1-1.133.2q-1.794,0-1.794-1.864V-4.249h-.892V-5.5h.892V-6.687l1.692-.483V-5.5h1.235v1.251H27.119v2.224q0,.859.682.859a1.15,1.15,0,0,0,.553-.156Z" transform="translate(1406 887)" fill="#646464"/>
    </g>
    <g id="Group_14" data-name="Group 14" transform="translate(149)">
      <path id="Path_15" data-name="Path 15" d="M6.29-6.29h-2.2V0H2.353V-6.29H.167V-7.7H6.29ZM8.792.134A2.957,2.957,0,0,1,6.631-.636a2.794,2.794,0,0,1-.787-2.092A2.794,2.794,0,0,1,6.66-4.864a3.085,3.085,0,0,1,2.208-.771,2.921,2.921,0,0,1,2.148.771,2.74,2.74,0,0,1,.779,2.038,2.908,2.908,0,0,1-.8,2.165A2.989,2.989,0,0,1,8.792.134Zm.043-4.469a1.132,1.132,0,0,0-.935.414A1.824,1.824,0,0,0,7.568-2.75q0,1.584,1.278,1.584,1.219,0,1.219-1.627Q10.065-4.334,8.835-4.334ZM20.684,0H16.1V-7.7h1.735v6.295h2.852Zm1.729-6.37a.991.991,0,0,1-.7-.255.822.822,0,0,1-.274-.626.793.793,0,0,1,.274-.623,1.024,1.024,0,0,1,.7-.242,1.022,1.022,0,0,1,.706.242.8.8,0,0,1,.271.623.819.819,0,0,1-.271.634A1.008,1.008,0,0,1,22.414-6.37ZM23.251,0h-1.7V-5.5h1.7ZM24.32-.145V-1.52a3.614,3.614,0,0,0,.835.376,2.769,2.769,0,0,0,.787.124,1.688,1.688,0,0,0,.712-.124.4.4,0,0,0,.26-.376.348.348,0,0,0-.118-.269,1.1,1.1,0,0,0-.3-.188,3.444,3.444,0,0,0-.406-.145q-.22-.064-.424-.145a4.066,4.066,0,0,1-.577-.266,1.669,1.669,0,0,1-.419-.33,1.3,1.3,0,0,1-.258-.435,1.736,1.736,0,0,1-.089-.585,1.507,1.507,0,0,1,.2-.795,1.645,1.645,0,0,1,.537-.545,2.454,2.454,0,0,1,.768-.312,4,4,0,0,1,.9-.1,4.992,4.992,0,0,1,.741.056,5.532,5.532,0,0,1,.741.164V-4.1a2.678,2.678,0,0,0-.69-.282,2.911,2.911,0,0,0-.722-.094,1.6,1.6,0,0,0-.314.03,1.035,1.035,0,0,0-.26.086.478.478,0,0,0-.177.145.334.334,0,0,0-.064.2.372.372,0,0,0,.1.258.84.84,0,0,0,.252.185,2.492,2.492,0,0,0,.346.14q.191.062.379.126a4.923,4.923,0,0,1,.612.258,1.958,1.958,0,0,1,.47.328,1.287,1.287,0,0,1,.3.44,1.565,1.565,0,0,1,.1.6,1.569,1.569,0,0,1-.212.835,1.7,1.7,0,0,1-.564.564,2.558,2.558,0,0,1-.811.317,4.5,4.5,0,0,1-.953.1A4.915,4.915,0,0,1,24.32-.145Zm8.524.081a2.509,2.509,0,0,1-1.133.2q-1.794,0-1.794-1.864V-4.249h-.892V-5.5h.892V-6.687l1.692-.483V-5.5h1.235v1.251H31.609v2.224q0,.859.682.859a1.15,1.15,0,0,0,.553-.156Z" transform="translate(1580 887)" fill="#646464"/>
      <path id="Path_17" data-name="Path 17" d="M4.136.134a3.585,3.585,0,0,1-2.7-1.077A3.866,3.866,0,0,1,.4-3.749,4.143,4.143,0,0,1,1.456-6.7a3.663,3.663,0,0,1,2.8-1.128,3.5,3.5,0,0,1,2.667,1.08A3.98,3.98,0,0,1,7.944-3.9,4.077,4.077,0,0,1,6.888-.978,3.622,3.622,0,0,1,4.136.134Zm.075-6.472a1.746,1.746,0,0,0-1.45.685A2.855,2.855,0,0,0,2.224-3.84a2.8,2.8,0,0,0,.537,1.81,1.721,1.721,0,0,0,1.407.666,1.738,1.738,0,0,0,1.423-.647,2.772,2.772,0,0,0,.526-1.8,3,3,0,0,0-.51-1.864A1.664,1.664,0,0,0,4.211-6.338Zm8.433,2.369a1.472,1.472,0,0,0-.714-.167,1.029,1.029,0,0,0-.865.406,1.769,1.769,0,0,0-.312,1.1V0h-1.7V-5.5h1.7v1.021h.021A1.468,1.468,0,0,1,12.225-5.6a1.093,1.093,0,0,1,.419.064ZM18.772,0h-1.7V-.757h-.021a1.9,1.9,0,0,1-1.7.892,2.085,2.085,0,0,1-1.66-.728,3.013,3.013,0,0,1-.628-2.033,3.279,3.279,0,0,1,.693-2.186,2.26,2.26,0,0,1,1.815-.822,1.544,1.544,0,0,1,1.482.763h.021V-8.143h1.7ZM17.107-2.675v-.414A1.3,1.3,0,0,0,16.8-3.98a1.029,1.029,0,0,0-.811-.354,1.022,1.022,0,0,0-.881.443,2.058,2.058,0,0,0-.317,1.217,1.781,1.781,0,0,0,.306,1.117,1.016,1.016,0,0,0,.849.392,1.021,1.021,0,0,0,.841-.414A1.724,1.724,0,0,0,17.107-2.675Zm8.035.408H21.554q.086,1.2,1.509,1.2a2.947,2.947,0,0,0,1.6-.43V-.274a4.191,4.191,0,0,1-1.982.408A2.79,2.79,0,0,1,20.609-.6a2.79,2.79,0,0,1-.736-2.06,2.943,2.943,0,0,1,.795-2.17,2.648,2.648,0,0,1,1.955-.8,2.4,2.4,0,0,1,1.861.714,2.751,2.751,0,0,1,.658,1.939ZM23.568-3.309q0-1.182-.956-1.182a.913.913,0,0,0-.706.338,1.536,1.536,0,0,0-.363.843Zm6.171-.661a1.472,1.472,0,0,0-.714-.167,1.029,1.029,0,0,0-.865.406,1.769,1.769,0,0,0-.312,1.1V0h-1.7V-5.5h1.7v1.021h.021A1.468,1.468,0,0,1,29.321-5.6a1.093,1.093,0,0,1,.419.064Z" transform="translate(1655 887)" fill="#646464"/>
      <g id="Group_12" data-name="Group 12" transform="translate(-16)">
        <circle id="Ellipse_1" data-name="Ellipse 1" cx="10" cy="10" r="10" transform="translate(1640 873)" fill="#91e8c2"/>
        <path id="Path_16" data-name="Path 16" d="M2.3-1.407H5.57V0H.446V-.58a2.7,2.7,0,0,1,.2-1.061,3.52,3.52,0,0,1,.5-.843A4.333,4.333,0,0,1,1.8-3.145q.357-.287.679-.518.338-.242.594-.462a3.382,3.382,0,0,0,.43-.438A1.664,1.664,0,0,0,3.765-5a1.31,1.31,0,0,0,.086-.475.955.955,0,0,0-.279-.747,1.242,1.242,0,0,0-.854-.252,2.868,2.868,0,0,0-1.9.79V-7.181a4.082,4.082,0,0,1,2.267-.65,3.347,3.347,0,0,1,1.05.153,2.222,2.222,0,0,1,.787.438,1.867,1.867,0,0,1,.491.69,2.329,2.329,0,0,1,.169.905,2.552,2.552,0,0,1-.164.945,2.9,2.9,0,0,1-.435.752,3.946,3.946,0,0,1-.626.62Q4-3.045,3.62-2.782q-.258.183-.5.363a4.71,4.71,0,0,0-.422.354,1.924,1.924,0,0,0-.29.341A.589.589,0,0,0,2.3-1.407Z" transform="translate(1647 887)" fill="#fff"/>
      </g>
      <g id="Group_13" data-name="Group 13" transform="translate(54)">
        <circle id="Ellipse_1-2" data-name="Ellipse 1" cx="10" cy="10" r="10" transform="translate(1640 873)" fill="#91e8c2"/>
        <path id="Path_18" data-name="Path 18" d="M4.469-7.874V0H2.777V-5.962a2.026,2.026,0,0,1-.33.234,3.41,3.41,0,0,1-.406.2,3.621,3.621,0,0,1-.446.15,3.256,3.256,0,0,1-.457.089V-6.719a7.058,7.058,0,0,0,1.246-.494,7.091,7.091,0,0,0,1.058-.661Z" transform="translate(1647 887)" fill="#fff"/>
      </g>
    </g>
    <g id="Group_15" data-name="Group 15" transform="translate(-19)">
      <path id="Path_11" data-name="Path 11" d="M5.333-6.29H2.616V-4.4h2.5v1.407h-2.5V0H.881V-7.7H5.333Zm4.689,2.32a1.472,1.472,0,0,0-.714-.167,1.029,1.029,0,0,0-.865.406,1.769,1.769,0,0,0-.312,1.1V0h-1.7V-5.5h1.7v1.021h.021A1.468,1.468,0,0,1,9.6-5.6a1.093,1.093,0,0,1,.419.064ZM13.39.134a2.957,2.957,0,0,1-2.162-.771,2.794,2.794,0,0,1-.787-2.092,2.794,2.794,0,0,1,.816-2.135,3.085,3.085,0,0,1,2.208-.771,2.921,2.921,0,0,1,2.148.771,2.74,2.74,0,0,1,.779,2.038,2.908,2.908,0,0,1-.8,2.165A2.989,2.989,0,0,1,13.39.134Zm.043-4.469a1.132,1.132,0,0,0-.935.414,1.824,1.824,0,0,0-.333,1.171q0,1.584,1.278,1.584,1.219,0,1.219-1.627Q14.663-4.334,13.433-4.334ZM26.227,0H24.535V-3.137q0-1.2-.881-1.2a.809.809,0,0,0-.682.36,1.479,1.479,0,0,0-.263.9V0h-1.7V-3.169q0-1.166-.865-1.166a.829.829,0,0,0-.7.344,1.513,1.513,0,0,0-.26.935V0h-1.7V-5.5h1.7v.859h.021a2.029,2.029,0,0,1,.739-.717,2.03,2.03,0,0,1,1.039-.277,1.584,1.584,0,0,1,1.6,1.026,2.034,2.034,0,0,1,1.848-1.026q1.794,0,1.794,2.213Zm9.131,0H30.771V-7.7h1.735v6.295h2.852Zm1.729-6.37a.991.991,0,0,1-.7-.255.822.822,0,0,1-.274-.626.793.793,0,0,1,.274-.623,1.024,1.024,0,0,1,.7-.242,1.022,1.022,0,0,1,.706.242.8.8,0,0,1,.271.623.819.819,0,0,1-.271.634A1.008,1.008,0,0,1,37.087-6.37ZM37.925,0h-1.7V-5.5h1.7Zm1.069-.145V-1.52a3.614,3.614,0,0,0,.835.376,2.769,2.769,0,0,0,.787.124,1.688,1.688,0,0,0,.712-.124.4.4,0,0,0,.26-.376.348.348,0,0,0-.118-.269,1.1,1.1,0,0,0-.3-.188,3.444,3.444,0,0,0-.406-.145q-.22-.064-.424-.145a4.065,4.065,0,0,1-.577-.266,1.669,1.669,0,0,1-.419-.33,1.3,1.3,0,0,1-.258-.435,1.736,1.736,0,0,1-.089-.585,1.507,1.507,0,0,1,.2-.795,1.645,1.645,0,0,1,.537-.545,2.454,2.454,0,0,1,.768-.312,4,4,0,0,1,.9-.1,4.992,4.992,0,0,1,.741.056,5.532,5.532,0,0,1,.741.164V-4.1a2.678,2.678,0,0,0-.69-.282,2.911,2.911,0,0,0-.722-.094,1.6,1.6,0,0,0-.314.03,1.035,1.035,0,0,0-.26.086.478.478,0,0,0-.177.145.334.334,0,0,0-.064.2.372.372,0,0,0,.1.258A.84.84,0,0,0,41-3.574a2.492,2.492,0,0,0,.346.14q.191.062.379.126a4.923,4.923,0,0,1,.612.258,1.958,1.958,0,0,1,.47.328,1.287,1.287,0,0,1,.3.44,1.565,1.565,0,0,1,.1.6A1.569,1.569,0,0,1,43-.846a1.7,1.7,0,0,1-.564.564,2.558,2.558,0,0,1-.811.317,4.5,4.5,0,0,1-.953.1A4.915,4.915,0,0,1,38.994-.145Zm8.524.081a2.509,2.509,0,0,1-1.133.2q-1.794,0-1.794-1.864V-4.249H43.7V-5.5h.892V-6.687l1.692-.483V-5.5h1.235v1.251H46.283v2.224q0,.859.682.859a1.15,1.15,0,0,0,.553-.156Z" transform="translate(1580 887)" fill="#646464"/>
      <path id="Path_13" data-name="Path 13" d="M4.136.134a3.585,3.585,0,0,1-2.7-1.077A3.866,3.866,0,0,1,.4-3.749,4.143,4.143,0,0,1,1.456-6.7a3.663,3.663,0,0,1,2.8-1.128,3.5,3.5,0,0,1,2.667,1.08A3.98,3.98,0,0,1,7.944-3.9,4.077,4.077,0,0,1,6.888-.978,3.622,3.622,0,0,1,4.136.134Zm.075-6.472a1.746,1.746,0,0,0-1.45.685A2.855,2.855,0,0,0,2.224-3.84a2.8,2.8,0,0,0,.537,1.81,1.721,1.721,0,0,0,1.407.666,1.738,1.738,0,0,0,1.423-.647,2.772,2.772,0,0,0,.526-1.8,3,3,0,0,0-.51-1.864A1.664,1.664,0,0,0,4.211-6.338Zm8.433,2.369a1.472,1.472,0,0,0-.714-.167,1.029,1.029,0,0,0-.865.406,1.769,1.769,0,0,0-.312,1.1V0h-1.7V-5.5h1.7v1.021h.021A1.468,1.468,0,0,1,12.225-5.6a1.093,1.093,0,0,1,.419.064ZM18.772,0h-1.7V-.757h-.021a1.9,1.9,0,0,1-1.7.892,2.085,2.085,0,0,1-1.66-.728,3.013,3.013,0,0,1-.628-2.033,3.279,3.279,0,0,1,.693-2.186,2.26,2.26,0,0,1,1.815-.822,1.544,1.544,0,0,1,1.482.763h.021V-8.143h1.7ZM17.107-2.675v-.414A1.3,1.3,0,0,0,16.8-3.98a1.029,1.029,0,0,0-.811-.354,1.022,1.022,0,0,0-.881.443,2.058,2.058,0,0,0-.317,1.217,1.781,1.781,0,0,0,.306,1.117,1.016,1.016,0,0,0,.849.392,1.021,1.021,0,0,0,.841-.414A1.724,1.724,0,0,0,17.107-2.675Zm8.035.408H21.554q.086,1.2,1.509,1.2a2.947,2.947,0,0,0,1.6-.43V-.274a4.191,4.191,0,0,1-1.982.408A2.79,2.79,0,0,1,20.609-.6a2.79,2.79,0,0,1-.736-2.06,2.943,2.943,0,0,1,.795-2.17,2.648,2.648,0,0,1,1.955-.8,2.4,2.4,0,0,1,1.861.714,2.751,2.751,0,0,1,.658,1.939ZM23.568-3.309q0-1.182-.956-1.182a.913.913,0,0,0-.706.338,1.536,1.536,0,0,0-.363.843Zm6.171-.661a1.472,1.472,0,0,0-.714-.167,1.029,1.029,0,0,0-.865.406,1.769,1.769,0,0,0-.312,1.1V0h-1.7V-5.5h1.7v1.021h.021A1.468,1.468,0,0,1,29.321-5.6a1.093,1.093,0,0,1,.419.064Z" transform="translate(1670 887)" fill="#646464"/>
      <g id="Group_12-2" data-name="Group 12" transform="translate(-1)">
        <circle id="Ellipse_1-3" data-name="Ellipse 1" cx="10" cy="10" r="10" transform="translate(1640 873)" fill="#dc91e8"/>
        <path id="Path_12" data-name="Path 12" d="M.628-.252V-1.729a2.981,2.981,0,0,0,1.8.564,1.625,1.625,0,0,0,1.012-.279.927.927,0,0,0,.363-.779.885.885,0,0,0-.448-.795A2.323,2.323,0,0,0,2.127-3.3H1.413V-4.6h.661q1.5,0,1.5-1,0-.94-1.155-.94a2.633,2.633,0,0,0-1.5.5V-7.423a4.154,4.154,0,0,1,1.891-.408,2.853,2.853,0,0,1,1.84.532,1.692,1.692,0,0,1,.658,1.38A1.8,1.8,0,0,1,3.776-4.028V-4a2.081,2.081,0,0,1,1.289.594A1.673,1.673,0,0,1,5.538-2.2a2.067,2.067,0,0,1-.79,1.708A3.414,3.414,0,0,1,2.567.134,4.215,4.215,0,0,1,.628-.252Z" transform="translate(1647 887)" fill="#fff"/>
      </g>
      <g id="Group_13-2" data-name="Group 13" transform="translate(69)">
        <circle id="Ellipse_1-4" data-name="Ellipse 1" cx="10" cy="10" r="10" transform="translate(1640 873)" fill="#dc91e8"/>
        <path id="Path_14" data-name="Path 14" d="M.763-.2v-1.45a3.166,3.166,0,0,0,1.681.483,1.579,1.579,0,0,0,1.05-.32,1.076,1.076,0,0,0,.379-.867Q3.873-3.5,2.256-3.5a11.971,11.971,0,0,0-1.375.091l.29-4.3H5.248v1.386H2.465L2.358-4.775q.414-.032.714-.032a2.627,2.627,0,0,1,1.858.623A2.176,2.176,0,0,1,5.6-2.508,2.473,2.473,0,0,1,4.8-.6a3.075,3.075,0,0,1-2.17.739A4.643,4.643,0,0,1,.763-.2Z" transform="translate(1647 887)" fill="#fff"/>
      </g>
    </g>
  </g>
</svg>
