<?xml version="1.0" encoding="utf-8"?>

<!DOCTYPE svg PUBLIC "-//W3C//DTD SVG 1.1//EN" "http://www.w3.org/Graphics/SVG/1.1/DTD/svg11.dtd">
<svg version="1.1" id="Layer_1" xmlns="http://www.w3.org/2000/svg" xmlns:xlink="http://www.w3.org/1999/xlink" x="0px" y="0px"
	 viewBox="0 0 1770.523 1645.69" enable-background="new 0 0 1770.523 1645.69" xml:space="preserve">
<g>
	<path fill="#8C4E59" stroke="#8C4E59" stroke-width="0.5" d="M889.487,45.923c12.52-0.561,25.085-0.063,37.623-0.226
		c14.7,0.127,29.427-0.262,44.118,0.181c12.963,3.058,25.8,6.676,38.727,9.906c10.566,2.958,21.403,5.039,31.707,8.91
		c17.857,6.296,35.705,12.601,53.589,18.825c1.447,0.516,2.768,1.348,3.845,2.47c9.643,9.951,19.214,19.983,28.911,29.88
		c3.727,3.79,5.663,8.847,8.404,13.325c13.036,23.439,26.713,46.534,39.043,70.361c7.653,14.402,15.216,28.848,22.887,43.241
		c1.366,2.415,1.031,5.274,1.077,7.933c-0.217,12.755,0.145,25.519-0.181,38.274c-6.197-11.226-11.561-22.896-17.405-34.303
		c-2.84-5.229-4.767-11.063-8.856-15.505c-4.216-4.659-8.151-9.553-12.448-14.121c-18.509,1.854-36.945,4.315-55.444,6.169
		c-15.939,0.778-31.833,2.243-47.755,3.329c-11.19,1.149-22.462,0.968-33.679,0.362c-10.946-0.488-21.973,0.253-32.865-0.977
		c-16.871-4.351-33.652-9.073-50.487-13.551c-4.053-0.95-8.268-3.058-12.429-1.502c-12.52,3.845-25.103,7.499-37.65,11.253
		c-6.178,1.755-12.23,4.062-18.635,4.84c-14.971,1.918-29.898,4.152-44.869,6.052c-2.198-0.036-3.157,2.153-4.216,3.673
		c-5.437,8.73-10.892,17.432-16.464,26.071c-1.158,1.818-2.506,3.564-3.238,5.618c-0.579,3.166-0.217,6.405-0.262,9.598
		c-0.009,12.683,0.054,25.365-0.054,38.039c0.036,1.909-0.172,4.161,1.529,5.473c12.873,12.755,25.619,25.637,38.482,38.392
		c3.021,2.949,4.695,6.884,6.694,10.53c5.862,10.837,11.814,21.629,17.613,32.503c-9.498,7.219-19.495,13.768-29.129,20.806
		c-3.284,2.461-6.893,4.487-9.987,7.183c-1.927,2.298-2.533,5.373-3.682,8.087c-3.347,8.711-6.767,17.396-10.123,26.107
		c-1.447,3.836-3.51,7.626-3.302,11.851c0.109,15.107,0.036,30.214,0.054,45.321c0.136,3.202-1.854,5.871-3.392,8.503
		c-4.478,7.246-8.368,14.845-13.09,21.928c-5.627-10.403-10.629-21.141-16.012-31.671c-2.289-4.288-3.926-9.019-7.264-12.637
		c-7.056-7.735-14.23-15.36-21.204-23.167c-1.854-2.153-4.297-3.646-6.83-4.858c-12.04-5.998-23.837-12.484-35.949-18.328
		c-7.906-2.424-16.102-3.881-24.144-5.771c-2.479-0.832-4.143,1.655-5.808,3.021c-6.767,6.776-14.067,13.026-20.616,19.992
		c-5.934,11.416-10.928,23.339-16.554,34.927c-0.235-17.224,0.018-34.448-0.118-51.672c-0.326-6.432-1.818-12.719-2.578-19.105
		c-2.162-14.148-3.845-28.378-6.631-42.427c-2.967-16.79-6.477-33.498-9.128-50.333c0.416-1.583,0.923-3.166,0.932-4.804
		c-0.099-16.907-0.136-33.824,0.009-50.722c0.072-1.963-0.425-3.863-0.959-5.726c2.641-15.65,6.197-31.137,9.109-46.742
		c0.769-4.758,2.596-9.227,4.324-13.696c5.654-15.152,11.38-30.287,16.934-45.475c1.131-3.438,2.506-6.875,5.057-9.526
		c27.365-30.757,57.018-59.343,86.011-88.526c2.596-2.56,4.975-5.645,8.594-6.785c20.607-7.644,41.015-15.831,61.668-23.366
		C838.431,57.321,863.977,51.64,889.487,45.923z"/>
	<path fill="#FFBDA3" stroke="#FFBDA3" stroke-width="0.5" d="M927.87,218.904c4.161-1.556,8.377,0.552,12.429,1.502
		c16.835,4.478,33.616,9.2,50.487,13.551c10.892,1.23,21.919,0.488,32.865,0.977c11.217,0.606,22.489,0.787,33.679-0.362
		c15.921-1.086,31.815-2.551,47.755-3.329c18.499-1.854,36.936-4.315,55.444-6.169c4.297,4.568,8.232,9.462,12.448,14.121
		c4.089,4.442,6.016,10.276,8.856,15.505c5.844,11.407,11.208,23.077,17.405,34.303c6.206,14.248,12.402,28.504,18.698,42.716
		c2.207,5.156,2.008,10.883,2.696,16.355c1.086,8.865,1.782,17.767,2.886,26.623c0.805,6.369,0.579,12.99,2.967,19.051
		c3.229,8.585,6.269,17.233,9.399,25.854c1.393,3.908,3.374,7.753,3.374,12.004c0.018,6.957-0.045,13.913,0.027,20.879
		c0.163,5.111-2.044,9.824-3.564,14.591c-2.298,7.02-4.55,14.067-6.821,21.096c-2.09,8.042-2.859,16.365-4.514,24.497
		c-0.651,3.655-1.556,7.472-0.452,11.145c1.692,6.133,3.401,12.276,5.093,18.418c2.777,8.395,2.859,17.333,4.026,26.035
		c0.534,7.798,2.759,15.614,1.529,23.43c-4.876,18.545-10.566,36.872-16.346,55.155c-1.746,4.993-1.827,10.313-2.47,15.505
		c-0.742,6.016-1.321,12.049-2.026,18.065c-1.655,17.857-5.093,35.479-7.255,53.273c-3.555,25.094-6.884,50.206-10.512,75.282
		c-1.465,8.395-1.456,17.161-4.722,25.148c-4.324,10.874-8.196,21.928-12.511,32.811c-2.054,4.659-5.111,8.784-7.526,13.262
		c-1.556,2.415-2.714,5.708-5.871,6.359c-10.874-1.746-21.928,0.326-32.883,0.081c-11.109-0.253-22.19,1.303-33.29,0.615
		c-21.286-2.515-42.571-4.984-63.857-7.427c-8.503-1.149-17.097-1.755-25.51-3.492c-10.919-2.207-21.928-3.926-32.865-6.034
		c-4.921-1.013-10.041-1.357-14.691-3.365c-14.031-6.486-27.889-13.325-42.029-19.576c-4.17-1.9-8.114-4.424-12.646-5.373
		c-19.431-4.161-38.654-9.2-58.14-13.063c4.433,7.364,10.05,13.904,15.026,20.897c5.781,7.798,11.624,15.55,17.278,23.439
		c4.044,5.817,9.498,10.394,14.392,15.451c12.502,12.529,25.148,24.895,37.578,37.487c4.749,4.632,8.947,9.779,13.415,14.673
		c4.378,5.229,9.417,9.851,13.795,15.098c4.885,5.147,9.327,10.72,14.42,15.677c-8.603,5.998-17.405,11.715-26.017,17.703
		c-2.063,1.447-4.297,2.795-6.866,2.994c-7.897,0.986-15.795,1.909-23.665,2.994c-0.344,0.045-1.04,0.127-1.384,0.163
		c-43.295-31.996-86.852-63.658-130.265-95.5c-5.952-4.623-12.502-8.53-18.002-13.687c-10.304-12.619-20.399-25.411-30.667-38.057
		c-3.528-4.659-7.943-8.829-9.987-14.438c-1.963-5.111-4.614-9.951-6.368-15.134c-0.244-3.302,0.968-6.522,1.511-9.743
		c1.276-5.437,1.9-11.036,3.6-16.365c3.79-8.078,9.064-15.424,12.592-23.629c0.326-15.93,0-31.879,0.154-47.818
		c0.326-7.617-2.651-14.754-4.315-22.055c-2.56-9.788-5.066-19.594-7.734-29.355c-1.384-4.261-5.979-6.106-9.001-9.037
		c-10.249-8.422-21.123-16.193-30.25-25.881c-6.558-6.712-13.289-13.244-19.929-19.874c-3.6-3.772-5.129-8.892-7.364-13.488
		c-4.225-9.29-8.684-18.463-12.9-27.754c-1.791-4.27-2.026-8.965-2.822-13.47c-1.818-12.683-4.433-25.257-5.889-37.976
		c5.627-11.588,10.62-23.511,16.554-34.927c6.549-6.966,13.85-13.216,20.616-19.992c1.664-1.366,3.329-3.854,5.808-3.021
		c8.042,1.891,16.238,3.347,24.144,5.771c12.113,5.844,23.909,12.33,35.949,18.328c2.533,1.212,4.975,2.705,6.83,4.858
		c6.975,7.807,14.148,15.433,21.204,23.167c3.338,3.618,4.975,8.35,7.264,12.637c5.382,10.53,10.385,21.268,16.012,31.671
		c4.722-7.083,8.612-14.682,13.09-21.928c1.538-2.632,3.528-5.301,3.392-8.503c-0.018-15.107,0.054-30.214-0.054-45.321
		c-0.208-4.225,1.854-8.015,3.302-11.851c3.356-8.711,6.776-17.396,10.123-26.107c1.149-2.714,1.755-5.79,3.682-8.087
		c3.094-2.696,6.703-4.722,9.987-7.183c9.634-7.038,19.63-13.587,29.129-20.806c-5.799-10.873-11.751-21.666-17.613-32.503
		c-1.999-3.646-3.673-7.581-6.694-10.53c-12.864-12.755-25.61-25.637-38.482-38.392c-1.701-1.312-1.493-3.564-1.529-5.473
		c0.109-12.674,0.045-25.356,0.054-38.039c0.045-3.193-0.317-6.432,0.262-9.598c0.733-2.053,2.081-3.799,3.238-5.618
		c5.573-8.639,11.027-17.342,16.464-26.071c1.058-1.52,2.017-3.709,4.216-3.673c14.971-1.9,29.898-4.134,44.869-6.052
		c6.405-0.778,12.457-3.085,18.635-4.84C902.767,226.403,915.35,222.749,927.87,218.904z"/>
	<path fill="#6E3842" stroke="#6E3842" stroke-width="0.5" d="M621.295,297.452c0.534,1.863,1.031,3.763,0.959,5.726
		c-0.145,16.898-0.109,33.815-0.009,50.722c-0.009,1.637-0.516,3.22-0.932,4.804c-0.597-4.315-0.362-8.666-0.38-12.99
		c0-12.068,0-24.126,0-36.185C620.934,305.503,620.744,301.45,621.295,297.452z"/>
	<path fill="#2D3E50" stroke="#2D3E50" stroke-width="0.5" d="M717.927,786.045c7.3-5.69,14.664-11.317,21.892-17.097
		c-3.528,8.205-8.802,15.55-12.592,23.629c-1.701,5.328-2.325,10.928-3.6,16.365c-0.543,3.22-1.755,6.441-1.511,9.743
		c1.755,5.183,4.405,10.023,6.368,15.134c2.044,5.609,6.459,9.779,9.987,14.438c10.267,12.647,20.363,25.438,30.667,38.057
		c5.5,5.156,12.049,9.064,18.002,13.687c43.413,31.843,86.97,63.504,130.265,95.5c-18.3,7.11-36.673,14.058-55.073,20.924
		c-4.704,1.845-7.924,5.934-11.887,8.892c-10.15,8.739-20.517,17.215-30.458,26.189c5.31,3.772,11.461,6.115,17.115,9.318
		c9.29,4.885,18.599,9.743,27.889,14.628c3.971,2.198,7.21,5.437,10.774,8.223c5.907,4.595,11.67,9.399,17.522,14.076
		c2.28,1.583,1.122,4.568,1.058,6.875c-1.556,10.077-2.877,20.191-3.944,30.332c-4.197,22.199-8.775,44.335-13.063,66.516
		c-1.511,8.748-4.116,17.351-4.46,26.261c-0.516,6.947-1.728,13.823-1.909,20.797c-0.172,8.793-1.891,17.441-2.207,26.225
		c-0.85,7.888-2.081,15.795-1.683,23.764c-0.289,0.109-0.868,0.317-1.158,0.425c0.38,25.709-0.887,51.4-0.706,77.109
		c0.181,8.82,2.171,17.486,2.388,26.315c1.357,12.746,2.868,25.492,4.179,38.256c1.9,11.778,1.04,23.737,1.61,35.606
		c1.049,7.273,0.479,14.628,1.004,21.946c0.832,12.999,0.516,26.044,0.688,39.062c0.787-3.682,0.407-7.463,0.923-11.154
		c0.09,14.591,0.054,29.192,0.226,43.783c-2.415-8.386-3.926-16.998-6.224-25.411c-3.175-12.013-5.527-24.235-9.164-36.121
		c-23.321-80.393-46.778-160.75-70.035-241.153c-2.85-9.173-3.989-18.744-6.188-28.07c-8.295-42.291-16.943-84.518-25.284-126.809
		c-1.882-8.259-2.75-16.808-5.97-24.705c-12.357-36.782-24.578-73.618-37.189-110.318c-8.811-20.272-18.581-40.12-27.428-60.374
		c-0.968-2.099-1.547-4.369-1.502-6.676c0.054-12.086,0.054-24.162,0.027-36.239c-0.018-2.433,0.262-4.858,1.086-7.137
		c3.763-10.711,7.472-21.439,11.461-32.06c0.669-1.665,0.724-3.456,0.624-5.202c1.511-1.855,2.28-4.152,3.103-6.359
		c3.962-10.892,7.816-21.828,11.579-32.792C715.692,788.768,716.407,787.058,717.927,786.045z"/>
	<path fill="#FF9386" stroke="#FF9386" stroke-width="0.5" d="M849.431,828.923c19.485,3.863,38.709,8.901,58.14,13.063
		c4.532,0.95,8.476,3.474,12.646,5.373c14.139,6.251,27.998,13.09,42.029,19.576c4.65,2.008,9.77,2.352,14.691,3.365
		c10.937,2.108,21.946,3.826,32.865,6.034c8.413,1.737,17.007,2.343,25.51,3.492c21.286,2.442,42.571,4.912,63.857,7.427
		c11.1,0.688,22.181-0.868,33.29-0.615c10.955,0.244,22.009-1.827,32.883-0.081c-8.992,2.759-18.074,5.22-27.066,8.006
		c-9.652,2.596-19.169,5.681-28.812,8.323c-15.496,1.728-31.11,2.379-46.633,3.808c-1.384,0.136-2.569,0.877-3.664,1.655
		c-27.898,21.159-55.878,42.219-83.831,63.296c-5.093-4.957-9.535-10.53-14.42-15.677c-4.378-5.247-9.417-9.869-13.795-15.098
		c-4.469-4.894-8.666-10.041-13.415-14.673c-12.429-12.592-25.076-24.958-37.578-37.487c-4.894-5.057-10.349-9.634-14.392-15.451
		c-5.654-7.888-11.498-15.641-17.278-23.439C859.481,842.827,853.863,836.287,849.431,828.923z"/>
	<path fill="#266A99" stroke="#266A99" stroke-width="0.5" d="M681.661,842.927c6.305-4.378,12.258-9.272,18.789-13.334
		c0.099,1.746,0.045,3.537-0.624,5.202c-3.989,10.62-7.698,21.349-11.461,32.06c-0.823,2.28-1.104,4.704-1.086,7.137
		c0.027,12.077,0.027,24.153-0.027,36.239c-0.045,2.307,0.534,4.577,1.502,6.676c8.847,20.254,18.617,40.102,27.428,60.374
		c12.61,36.7,24.832,73.536,37.189,110.318c3.22,7.897,4.089,16.446,5.97,24.705c8.341,42.291,16.989,84.518,25.284,126.809
		c2.198,9.327,3.338,18.897,6.188,28.07c23.258,80.402,46.714,160.76,70.035,241.153c3.637,11.887,5.989,24.108,9.164,36.121
		c2.298,8.413,3.808,17.025,6.224,25.411c1.456,4.424,1.782,9.137,3.392,13.533c1.475,4.315,1.873,8.901,2.985,13.316
		c1.836,5.066,2.37,10.475,3.745,15.677c1.077,4.957,2.949,9.779,3.157,14.908c0.353-0.461,0.715-0.914,1.095-1.33
		c0.181,2.868,0.452,5.753,0.633,8.648c0.344-0.489,0.697-0.959,1.068-1.411c0.371,4.216,1.782,8.241,2.334,12.438H732.88
		c-19.838-30.92-39.64-61.867-59.497-92.768c-18.291-28.097-35.126-57.109-52.712-85.64
		c-25.013-41.341-50.224-82.537-75.174-123.914c-35.696-61.442-71.021-123.091-106.691-184.56
		c-9.725-17.025-19.712-33.905-29.762-50.74c-2.831-4.984-6.124-9.716-8.521-14.926c6.368-0.506,12.764-0.353,19.151-0.696
		c6.332-0.172,12.746-0.878,19.024,0.38c18.707,3.302,37.406,6.622,56.104,9.996c1.746,0.244,3.98,0.76,4.984-1.167
		c14.23-20.996,28.631-41.884,42.987-62.798c4.17-5.889,6.748-12.665,9.806-19.151c10.267-22.561,20.643-45.086,30.965-67.62
		c3.501-6.938,11.968-9.688,15.161-16.772c6.378-3.157,11.082-8.648,16.473-13.135c12.484-11.353,25.356-22.308,37.641-33.851
		c6.947-10.665,12.999-21.919,19.657-32.774C675.328,851.186,677.056,845.786,681.661,842.927z"/>
	<path fill="#266A99" stroke="#266A99" stroke-width="0.5" d="M1109.463,902.885c9.643-2.642,19.16-5.726,28.812-8.323
		c11.905,12.466,24.334,24.425,36.447,36.7c4.903,4.695,9.372,9.86,14.655,14.157c3.872,6.287,8.91,11.733,13.343,17.613
		c7.011,8.377,13.642,17.052,20.607,25.465c10.394,11.896,21.087,23.538,31.517,35.407c10.032,11.38,20.517,22.38,30.232,34.032
		c13.063,17.342,26.406,34.466,39.378,51.88c23.782-7.952,47.375-16.5,71.211-24.262c-0.298,8.241-1.773,16.383-2.632,24.588
		c-1.701,13.497-3.193,27.021-4.876,40.527c-0.95,6.151-3.827,11.778-5.672,17.685c-12.203,35.09-24.958,69.981-36.881,105.162
		c-22.634,66.589-45.538,133.078-68.127,199.676c-10.096,29.572-21.602,58.646-32.331,87.992
		c-10.503,28.152-21.087,56.276-31.481,84.464h-127.605c0.244-4.84,0.688-9.67,0.624-14.51c0.335,1.529,0.742,3.048,1.113,4.614
		c-0.072-4.975-0.163-9.996,0.986-14.863c1.366-5.943,0.615-12.14,1.936-18.083c1.068-4.559,0.606-9.299,1.628-13.859
		c1.456-6.54,1.013-13.307,1.845-19.929c1.23-7.87,0.434-15.858,0.661-23.782c-0.045-16.464,0.081-32.919-0.063-49.374
		c3.311-22.362,5.934-44.824,8.901-67.231c4.496-50.36,8.72-100.747,13.28-151.107c0.389-7.87,1.773-15.677,1.728-23.574
		c0.009-38.899,0-77.797,0.009-116.696c-0.027-4.903,0.262-9.833-0.47-14.7c-3.447-22.932-6.251-45.964-9.788-68.887
		c-0.986-7.137,0.832-14.221,1.321-21.322c2.94-28.948,5.509-57.923,7.961-86.916c0.308-3.836,1.357-7.798,0.136-11.561
		c-2.705-8.721-5.618-17.369-8.368-26.062C1108.875,906.196,1109.155,904.504,1109.463,902.885z"/>
	<path fill="#2D3E50" stroke="#2D3E50" stroke-width="0.5" d="M1062.83,906.693c15.523-1.429,31.137-2.081,46.633-3.808
		c-0.308,1.619-0.588,3.311,0.036,4.921c2.75,8.693,5.663,17.342,8.368,26.062c1.221,3.763,0.172,7.725-0.136,11.561
		c-2.452,28.993-5.021,57.968-7.961,86.916c-0.489,7.101-2.307,14.184-1.321,21.322c3.537,22.923,6.341,45.955,9.788,68.887
		c0.733,4.867,0.443,9.797,0.47,14.7c-0.009,38.899,0,77.797-0.009,116.696c0.045,7.897-1.339,15.704-1.728,23.574
		c-4.559,50.36-8.784,100.747-13.28,151.107c-2.967,22.407-5.59,44.869-8.901,67.231c-8.594-30.133-15.586-60.7-23.683-90.968
		c-2.424-9.444-4.541-18.997-7.988-28.134c-8.413-26.469-17.242-52.802-25.845-79.199c-2.153-6.938-6.088-13.09-9.345-19.522
		c-8.729-16.898-17.432-33.815-26.36-50.604c-6.857-11.814-13.759-23.601-20.806-35.307c-1.918-3.365-4.641-6.531-4.966-10.539
		c-1.339-11.977-2.56-23.963-4.505-35.859c-0.552-3.736-0.543-7.526-0.932-11.271c-0.344-3.836-1.448-7.671-0.733-11.525
		c1.502-10.548,2.714-21.123,3.89-31.707c0.344-6.396,4.595-11.425,7.4-16.889c4.116-7.083,7.961-14.32,12.095-21.394
		c4.939-6.902,11.651-12.393,16.401-19.449c-6.061-5.79-12.095-11.597-18.246-17.278c-2.578-2.406-6.124-3.175-9.354-4.252
		c-8.178-2.497-16.31-5.12-24.388-7.888c-11-2.569-22.109-4.65-33.154-7.002c-1.873-0.461-3.682-1.131-5.482-1.737
		c7.87-1.086,15.768-2.008,23.665-2.994c2.569-0.199,4.804-1.547,6.866-2.994c8.612-5.989,17.414-11.706,26.017-17.703
		c27.953-21.078,55.932-42.137,83.831-63.296C1060.261,907.571,1061.446,906.829,1062.83,906.693z"/>
	<path fill="#3598DB" stroke="#3598DB" stroke-width="0.5" d="M551.712,959.975c15.786-7.997,31.101-16.934,46.995-24.705
		c-3.193,7.083-11.66,9.833-15.161,16.772c-10.322,22.534-20.698,45.059-30.965,67.62c-3.058,6.486-5.636,13.262-9.806,19.151
		c-14.356,20.915-28.758,41.802-42.987,62.798c-1.004,1.927-3.239,1.411-4.984,1.167c-18.698-3.374-37.397-6.694-56.104-9.996
		c-6.278-1.257-12.692-0.552-19.024-0.38c-6.387,0.344-12.782,0.19-19.151,0.696c2.397,5.211,5.69,9.942,8.521,14.926
		c10.05,16.835,20.037,33.715,29.762,50.74c35.669,61.469,70.994,123.118,106.691,184.56
		c24.949,41.377,50.161,82.573,75.174,123.914c17.586,28.531,34.421,57.543,52.712,85.64c19.856,30.902,39.658,61.849,59.497,92.768
		H364.529c-5.781-17.224-11.272-34.547-17.061-51.762c-5.482-18.083-10.846-36.194-16.292-54.277
		c-5.934-19.712-12.737-39.134-19.087-58.701c-3.6-10.494-6.604-21.213-10.774-31.499c2.732,25.926,5.97,51.798,8.929,77.707
		c0.588,7.002-0.977,13.931-1.637,20.879c-0.832,9.037-2.144,18.02-2.931,27.066c-0.407,4.442,1.348,8.648,2.397,12.891
		c2.053,8.151,4.315,16.247,6.477,24.379c0.896,3.573,2.605,7.318,1.357,11.045c-2.243,7.427-4.632,14.818-6.83,22.272H47.135
		c0.995-8.051,1.158-16.165,2.072-24.208c1.438-19.684,3.573-39.306,4.767-58.999c-0.896-9.327-7.119-17.586-6.649-27.157
		c0.081-11.163,0.063-22.317,0.009-33.462c-0.127-4.568,1.438-8.901,2.632-13.226c2.596-8.938,4.876-17.975,7.59-26.867
		c2.831-6.522,6.776-12.493,10.032-18.798c4.342-8.304,9.372-16.265,13.388-24.732c3.211-15.822,2.705-32.322,7.291-47.89
		c2.732-11.091,5.563-22.145,8.277-33.236c0.877-3.781,3.284-6.893,5.22-10.159c3.293-5.455,6.568-10.928,9.878-16.365
		c2.605-4.831,6.16-9.191,8.196-14.284c-1.167-11.163-3.618-22.19-4.867-33.353c0.018-6.948,0.769-13.868,1.022-20.797
		c0.163-3.908,0.226-7.897,1.538-11.624c11.398-33.272,22.833-66.544,34.095-99.861c0.651-2.126,2.081-3.854,3.673-5.328
		c8.91-8.576,17.758-17.215,26.605-25.845c2.723-3.085,7.11-2.922,10.819-3.763c8.603-1.8,17.459-2.687,25.754-5.763
		c28.396-9.625,56.783-19.286,85.197-28.875c14.483-4.686,28.55-10.548,42.806-15.867c20.942-8.024,41.902-16.012,62.844-24.054
		c13.678-5.337,27.537-10.231,41.07-15.921C484.156,990.099,517.952,975.091,551.712,959.975z"/>
	<path fill="#3598DB" stroke="#3598DB" stroke-width="0.5" d="M1189.377,945.42c3.799,0.769,7.454,2.072,11.082,3.447
		c35.886,12.366,71.709,24.895,107.595,37.261c16.898,6.142,34.258,10.892,51.355,16.446c38.6,12.058,77.218,24.054,115.818,36.139
		c16.111,4.758,31.906,10.675,48.388,14.103c20.019,4.74,40.057,9.435,60.085,14.139c1.999,0.344,3.329,1.972,4.632,3.392
		c9.29,10.611,18.563,21.24,27.962,31.77c2.216,2.488,3.555,5.581,4.994,8.576c7.961,16.41,15.967,32.81,23.954,49.22
		c2.162,4.867,5.229,9.435,6.17,14.772c4.224,21.629,8.666,43.223,12.927,64.852c6.432,31.454,11.615,63.142,17.45,94.714
		c4.55,25.836,9.345,51.635,13.904,77.471c0.896,5.283,2.958,10.258,4.541,15.36c7.427,22.986,15.008,45.918,22.471,68.896
		c1.303,3.953,0.38,8.142,0.281,12.203c-1.203,21.675-2.985,43.313-3.908,65.015c-1.719,24.135-3.058,48.297-4.46,72.451H1567.86
		c-1.583-14.22-6.459-28.088-5.654-42.517c0.018-30.757,0-61.514,0.009-92.271c-0.054-7.255,0.326-14.555-0.868-21.738
		c-3.329-21.72-6.206-43.503-9.517-65.214c-1.963,6.061-2.415,12.484-3.582,18.734c-4.713,29.608-9.987,59.126-14.429,88.788
		c-2.352,15.116-4.677,30.25-7.128,45.367c-0.633,3.609-0.914,7.273-0.887,10.955c0.099,19.295-0.045,38.591,0.09,57.895h-312.229
		c10.394-28.188,20.978-56.312,31.481-84.464c10.729-29.346,22.235-58.42,32.331-87.992
		c22.588-66.598,45.493-133.087,68.127-199.676c11.923-35.181,24.678-70.072,36.881-105.162c1.845-5.907,4.722-11.534,5.672-17.685
		c1.682-13.506,3.175-27.03,4.876-40.527c0.859-8.205,2.334-16.346,2.632-24.588c-23.837,7.762-47.429,16.31-71.211,24.262
		c-12.972-17.414-26.315-34.538-39.378-51.88c-9.716-11.651-20.2-22.652-30.232-34.032c-10.43-11.869-21.123-23.511-31.517-35.407
		c-6.966-8.413-13.596-17.088-20.607-25.465C1198.287,957.153,1193.249,951.707,1189.377,945.42 M1437.45,1501.072
		c-16.093,4.966-31.436,12.004-47.176,17.957c-24.262,10.059-49.075,18.698-73.79,27.555c-13.416,4.342-25.356,12.05-38.102,17.957
		c-0.38,7.762-0.136,15.55-0.208,23.33c8.132-0.344,16.111-2.207,24.18-3.166c18.246-2.94,36.583-5.355,54.793-8.458
		c21.548-7.092,43.132-14.094,64.689-21.141c4.966-1.909,9.137-5.355,13.687-8.051c13.072-8.313,26.089-16.726,39.179-25.022
		c1.665-1.23,4.876-2.072,4.071-4.767c-1.447-9.354-3.447-18.635-4.74-28.016C1461.784,1493.012,1449.653,1497.173,1437.45,1501.072
		z"/>
	<path fill="#D13F4A" stroke="#D13F4A" stroke-width="0.5" d="M917.404,995.5c0.344-0.036,1.04-0.118,1.384-0.163
		c1.8,0.606,3.609,1.276,5.482,1.737c11.045,2.352,22.154,4.433,33.154,7.002c8.078,2.768,16.211,5.391,24.388,7.888
		c3.23,1.076,6.776,1.845,9.354,4.252c6.151,5.681,12.185,11.489,18.246,17.278c-4.749,7.056-11.461,12.547-16.401,19.449
		c-4.134,7.074-7.979,14.311-12.095,21.394c-2.804,5.464-7.056,10.494-7.4,16.889c-1.176,10.584-2.388,21.159-3.89,31.707
		c-0.715,3.854,0.389,7.689,0.733,11.525c0.389,3.745,0.38,7.535,0.932,11.271c1.945,11.896,3.166,23.882,4.505,35.859
		c0.326,4.007,3.049,7.174,4.966,10.539c7.047,11.706,13.949,23.493,20.806,35.307c8.929,16.79,17.631,33.706,26.36,50.604
		c3.257,6.432,7.192,12.583,9.345,19.522c8.603,26.397,17.432,52.73,25.845,79.199c3.447,9.137,5.563,18.689,7.988,28.134
		c8.096,30.268,15.089,60.835,23.683,90.968c0.145,16.455,0.018,32.91,0.063,49.374c-0.226,7.924,0.57,15.912-0.661,23.782
		c-0.832,6.622-0.389,13.388-1.845,19.929c-1.022,4.559-0.561,9.3-1.628,13.859c-1.321,5.943-0.57,12.14-1.936,18.083
		c-1.149,4.867-1.058,9.887-0.986,14.863c-0.371-1.565-0.778-3.085-1.113-4.614c0.063,4.84-0.38,9.67-0.624,14.51H894.644
		c-0.552-4.197-1.963-8.223-2.334-12.438c-0.371,0.452-0.724,0.923-1.068,1.411c-0.181-2.895-0.452-5.781-0.633-8.648
		c-0.38,0.416-0.742,0.868-1.095,1.33c-0.208-5.129-2.081-9.951-3.157-14.908c-1.375-5.202-1.909-10.611-3.745-15.677
		c-1.113-4.415-1.511-9.001-2.985-13.316c-1.61-4.396-1.936-9.109-3.392-13.533c-0.172-14.591-0.136-29.192-0.226-43.783
		c-0.516,3.691-0.136,7.472-0.923,11.154c-0.172-13.017,0.145-26.062-0.688-39.062c-0.525-7.318,0.045-14.673-1.004-21.946
		c-0.57-11.869,0.289-23.828-1.61-35.606c-1.312-12.764-2.822-25.51-4.179-38.256c-0.217-8.829-2.207-17.495-2.388-26.315
		c-0.181-25.709,1.086-51.4,0.706-77.109c0.289-0.109,0.868-0.317,1.158-0.425c-0.398-7.97,0.832-15.876,1.683-23.764
		c0.317-8.784,2.035-17.432,2.207-26.225c0.181-6.974,1.393-13.85,1.909-20.797c0.344-8.91,2.949-17.513,4.46-26.261
		c4.288-22.181,8.865-44.317,13.063-66.516c1.067-10.141,2.388-20.254,3.944-30.332c0.063-2.307,1.221-5.292-1.058-6.875
		c-5.853-4.677-11.615-9.48-17.522-14.076c-3.564-2.786-6.803-6.025-10.774-8.223c-9.29-4.885-18.599-9.743-27.889-14.628
		c-5.654-3.202-11.805-5.545-17.115-9.318c9.942-8.974,20.309-17.45,30.458-26.189c3.962-2.958,7.183-7.047,11.887-8.892
		C880.731,1009.557,899.103,1002.61,917.404,995.5z"/>
	<path fill="#266A99" stroke="#266A99" stroke-width="0.5" d="M1548.247,1442.643c1.167-6.251,1.619-12.674,3.582-18.734
		c3.311,21.711,6.188,43.494,9.517,65.214c1.194,7.183,0.814,14.483,0.868,21.738c-0.009,30.757,0.009,61.514-0.009,92.271
		c-0.805,14.429,4.071,28.297,5.654,42.517h-41.965c-0.136-19.304,0.009-38.6-0.09-57.895c-0.027-3.682,0.253-7.346,0.887-10.955
		c2.451-15.116,4.776-30.25,7.128-45.367C1538.26,1501.768,1543.534,1472.251,1548.247,1442.643z"/>
	<path fill="#266A99" stroke="#266A99" stroke-width="0.5" d="M301.314,1449.409c4.17,10.285,7.174,21.005,10.774,31.499
		c6.35,19.567,13.153,38.989,19.087,58.701c5.446,18.083,10.81,36.194,16.292,54.277c5.79,17.215,11.281,34.538,17.061,51.762
		h-55.453c2.198-7.454,4.586-14.845,6.83-22.272c1.248-3.727-0.461-7.472-1.357-11.045c-2.162-8.132-4.424-16.229-6.477-24.379
		c-1.049-4.243-2.804-8.449-2.397-12.891c0.787-9.046,2.099-18.029,2.931-27.066c0.66-6.948,2.225-13.877,1.637-20.879
		C307.285,1501.208,304.046,1475.336,301.314,1449.409z"/>
	<path fill="#266A99" stroke="#266A99" stroke-width="0.5" d="M1437.45,1501.072c12.203-3.899,24.334-8.06,36.583-11.823
		c1.294,9.381,3.293,18.662,4.74,28.016c0.805,2.696-2.406,3.537-4.071,4.767c-13.09,8.295-26.107,16.708-39.179,25.022
		c-4.55,2.696-8.721,6.142-13.687,8.051c-21.557,7.047-43.141,14.049-64.689,21.141c-18.21,3.103-36.547,5.518-54.793,8.458
		c-8.069,0.959-16.048,2.822-24.18,3.166c0.072-7.78-0.172-15.568,0.208-23.33c12.746-5.907,24.687-13.615,38.102-17.957
		c24.714-8.856,49.528-17.495,73.79-27.555C1406.015,1513.076,1421.357,1506.038,1437.45,1501.072z"/>
</g>
</svg>
